<?xml version="1.0" encoding="utf-8"?>
<!-- Generator: Adobe Illustrator 23.0.4, SVG Export Plug-In . SVG Version: 6.00 Build 0)  -->
<svg version="1.1" id="Layer_2" xmlns="http://www.w3.org/2000/svg" xmlns:xlink="http://www.w3.org/1999/xlink" x="0px" y="0px"
	 viewBox="0 0 216 179.07" style="enable-background:new 0 0 216 179.07;" xml:space="preserve">
<style type="text/css">
	.st0{fill:#FFFFFF;}
	.st1{fill-rule:evenodd;clip-rule:evenodd;fill:#A7A7D2;}
	.st2{fill-rule:evenodd;clip-rule:evenodd;fill:#817FB9;}
	.st3{fill-rule:evenodd;clip-rule:evenodd;fill:#6B55A2;}
	.st4{fill:#663695;}
	.st5{fill:#AC217F;}
	.st6{fill:#CC3A95;}
	.st7{fill:#F16CA1;}
	.st8{fill:#F6A0B6;}
	.st9{fill:#DB3C96;}
	.st10{fill:#EF7E27;}
	.st11{fill:#F49334;}
	.st12{fill:#F5A646;}
	.st13{fill:#E86B24;}
	.st14{fill-rule:evenodd;clip-rule:evenodd;fill:#35A65B;}
	.st15{fill-rule:evenodd;clip-rule:evenodd;fill:#57A345;}
	.st16{fill-rule:evenodd;clip-rule:evenodd;fill:#B2C25B;}
	.st17{fill:#A3B83A;}
	.st18{fill:#186D37;}
	.st19{fill:#41924F;}
	.st20{fill:#D3C960;}
	.st21{fill:#75AF55;}
	.st22{fill:#5BA354;}
	.st23{fill:#A3242A;}
	.st24{fill:#E01F28;}
	.st25{fill:#EF4048;}
	.st26{fill:#EF4136;}
	.st27{fill-rule:evenodd;clip-rule:evenodd;fill:#BE1E2D;}
	.st28{fill-rule:evenodd;clip-rule:evenodd;fill:#D32643;}
	.st29{fill:#E03726;}
	.st30{fill-rule:evenodd;clip-rule:evenodd;fill:#E03726;}
	.st31{fill:#35BCAD;}
	.st32{fill:#1BA3C6;}
	.st33{fill:#68C8C9;}
	.st34{fill:#32A1B3;}
	.st35{fill:#2E618B;}
	.st36{fill:#59ACBE;}
	.st37{fill:#6ECCDA;}
	.st38{fill:#ACD8F0;}
	.st39{fill:#A0CBE1;}
	.st40{fill:#6FAFD5;}
	.st41{fill:#65A2C1;}
	.st42{fill:#203669;}
	.st43{fill:#0F559D;}
	.st44{fill:#1C74B4;}
	.st45{fill:#4294C6;}
	.st46{fill:#9FDAE5;}
	.st47{fill:#2DB5C0;}
	.st48{fill:#96D8E7;}
	.st49{fill:#067C8F;}
	.st50{fill:#8AC8CC;}
	.st51{fill:#3787A8;}
</style>
<g>
	<path class="st0" d="M0,171.13h3.5c0.89,0,1.59,0.25,2.04,0.69c0.35,0.35,0.52,0.77,0.52,1.29v0.02c0,0.94-0.54,1.44-1.11,1.74
		c0.91,0.31,1.55,0.84,1.55,1.89v0.02c0,1.39-1.15,2.14-2.89,2.14H0V171.13z M3.22,174.42c0.88,0,1.47-0.35,1.47-1.06v-0.02
		c0-0.61-0.49-0.99-1.37-0.99H1.35v2.07H3.22z M3.62,177.72c0.94,0,1.5-0.37,1.5-1.07v-0.02c0-0.66-0.52-1.05-1.6-1.05H1.35v2.14
		H3.62z"/>
	<path class="st0" d="M9.26,175.62v-4.49h1.37v4.44c0,1.45,0.75,2.23,1.97,2.23c1.21,0,1.96-0.74,1.96-2.17v-4.49h1.37v4.42
		c0,2.33-1.32,3.5-3.35,3.5C10.55,179.06,9.26,177.89,9.26,175.62z"/>
	<path class="st0" d="M19.23,171.13h1.37v7.8h-1.37V171.13z"/>
	<path class="st0" d="M24.02,171.13h1.37v6.55h4.1v1.25h-5.47V171.13z"/>
	<path class="st0" d="M32.25,171.13h2.91c2.45,0,4.15,1.68,4.15,3.88v0.02c0,2.2-1.69,3.9-4.15,3.9h-2.91V171.13z M35.16,177.69
		c1.64,0,2.71-1.1,2.71-2.63v-0.02c0-1.53-1.07-2.65-2.71-2.65h-1.54v5.3H35.16z"/>
	<path class="st0" d="M42.38,171.13h1.37v7.8h-1.37V171.13z"/>
	<path class="st0" d="M47.17,171.13h1.27l4.18,5.39v-5.39h1.35v7.8h-1.15l-4.3-5.55v5.55h-1.35V171.13z"/>
	<path class="st0" d="M56.97,175.06v-0.02c0-2.18,1.67-4.03,4.02-4.03c1.36,0,2.2,0.38,3,1.06l-0.87,1.04
		c-0.6-0.51-1.19-0.84-2.18-0.84c-1.44,0-2.53,1.26-2.53,2.75v0.02c0,1.6,1.06,2.79,2.65,2.79c0.74,0,1.4-0.23,1.88-0.59v-1.46
		h-1.99v-1.19h3.32v3.28c-0.77,0.66-1.87,1.21-3.25,1.21C58.57,179.07,56.97,177.33,56.97,175.06z"/>
	<path class="st0" d="M72.06,171.13h2.91c2.45,0,4.15,1.68,4.15,3.88v0.02c0,2.2-1.69,3.9-4.15,3.9h-2.91V171.13z M74.97,177.69
		c1.64,0,2.71-1.1,2.71-2.63v-0.02c0-1.53-1.07-2.65-2.71-2.65h-1.54v5.3H74.97z"/>
	<path class="st0" d="M82.19,171.13h1.37v7.8h-1.37V171.13z"/>
	<path class="st0" d="M86.64,175.06v-0.02c0-2.18,1.67-4.03,4.02-4.03c1.36,0,2.2,0.38,3,1.06l-0.87,1.04
		c-0.6-0.51-1.19-0.84-2.18-0.84c-1.44,0-2.53,1.26-2.53,2.75v0.02c0,1.6,1.06,2.79,2.65,2.79c0.74,0,1.4-0.23,1.88-0.59v-1.46
		h-1.99v-1.19h3.32v3.28c-0.77,0.66-1.87,1.21-3.25,1.21C88.24,179.07,86.64,177.33,86.64,175.06z"/>
	<path class="st0" d="M97.13,171.13h1.37v7.8h-1.37V171.13z"/>
	<path class="st0" d="M103.84,172.4h-2.47v-1.27h6.33v1.27h-2.47v6.53h-1.38V172.4z"/>
	<path class="st0" d="M112.24,171.08h1.27l3.43,7.86h-1.45l-0.79-1.88h-3.69l-0.8,1.88h-1.4L112.24,171.08z M114.2,175.84
		l-1.35-3.12l-1.34,3.12H114.2z"/>
	<path class="st0" d="M119.61,171.13h1.37v6.55h4.1v1.25h-5.47V171.13z"/>
	<path class="st0" d="M132.53,171.13h1.37v3.24h3.72v-3.24h1.37v7.8h-1.37v-3.29h-3.72v3.29h-1.37V171.13z"/>
	<path class="st0" d="M142.21,175.62v-4.49h1.37v4.44c0,1.45,0.75,2.23,1.97,2.23c1.21,0,1.96-0.74,1.96-2.17v-4.49h1.37v4.42
		c0,2.33-1.32,3.5-3.35,3.5C143.5,179.06,142.21,177.89,142.21,175.62z"/>
	<path class="st0" d="M152.1,171.13h1.46l2.37,3.69l2.37-3.69h1.46v7.8h-1.37v-5.59l-2.46,3.68h-0.05l-2.44-3.66v5.57h-1.35V171.13z
		"/>
	<path class="st0" d="M165.88,171.08h1.27l3.43,7.86h-1.45l-0.79-1.88h-3.69l-0.8,1.88h-1.4L165.88,171.08z M167.84,175.84
		l-1.35-3.12l-1.34,3.12H167.84z"/>
	<path class="st0" d="M173.25,171.13h1.27l4.18,5.39v-5.39h1.35v7.8h-1.15l-4.3-5.55v5.55h-1.35V171.13z"/>
	<path class="st0" d="M183.47,171.13h1.37v7.8h-1.37V171.13z"/>
	<path class="st0" d="M190.17,172.4h-2.47v-1.27h6.33v1.27h-2.47v6.53h-1.38V172.4z"/>
	<path class="st0" d="M196.89,171.13h1.37v7.8h-1.37V171.13z"/>
	<path class="st0" d="M201.68,171.13h5.78v1.23h-4.41v2.03h3.91v1.23h-3.91v2.09h4.47v1.23h-5.84V171.13z"/>
	<path class="st0" d="M209.96,177.8l0.82-0.98c0.75,0.65,1.49,1.01,2.46,1.01c0.85,0,1.38-0.39,1.38-0.98v-0.02
		c0-0.56-0.31-0.86-1.76-1.19c-1.66-0.4-2.6-0.89-2.6-2.33v-0.02c0-1.34,1.11-2.26,2.66-2.26c1.14,0,2.04,0.35,2.83,0.98l-0.74,1.04
		c-0.7-0.52-1.4-0.8-2.12-0.8c-0.8,0-1.27,0.41-1.27,0.92v0.02c0,0.6,0.36,0.87,1.85,1.23c1.65,0.4,2.51,0.99,2.51,2.28v0.02
		c0,1.46-1.15,2.33-2.79,2.33C212.02,179.05,210.9,178.63,209.96,177.8z"/>
</g>
<g>
	<path class="st0" d="M2.07,155.18l-1.64,0.4L0,153.9l2.69-0.8H4.1v9.45H2.07V155.18z"/>
	<path class="st0" d="M7.37,161.6l1.09-1.57c0.68,0.55,1.26,0.8,2.05,0.8c1.15,0,1.77-0.87,1.9-2.13c-0.46,0.39-1.09,0.64-1.9,0.64
		c-2.04,0-3.35-1.13-3.35-3.03v-0.03c0-1.89,1.46-3.29,3.58-3.29c1.26,0,2,0.31,2.71,1.02c0.67,0.67,1.11,1.69,1.11,3.54v0.03
		c0,3.04-1.43,5.12-4.1,5.12C9.09,162.71,8.17,162.25,7.37,161.6z M12.46,156.23v-0.03c0-0.83-0.62-1.44-1.65-1.44
		c-1.02,0-1.6,0.59-1.6,1.42v0.03c0,0.83,0.62,1.41,1.64,1.41S12.46,157.04,12.46,156.23z"/>
	<path class="st0" d="M17.32,161.6l1.09-1.57c0.68,0.55,1.26,0.8,2.05,0.8c1.15,0,1.77-0.87,1.9-2.13c-0.46,0.39-1.09,0.64-1.9,0.64
		c-2.04,0-3.35-1.13-3.35-3.03v-0.03c0-1.89,1.46-3.29,3.58-3.29c1.26,0,2,0.31,2.71,1.02c0.67,0.67,1.11,1.69,1.11,3.54v0.03
		c0,3.04-1.43,5.12-4.1,5.12C19.04,162.71,18.11,162.25,17.32,161.6z M22.4,156.23v-0.03c0-0.83-0.62-1.44-1.65-1.44
		c-1.02,0-1.6,0.59-1.6,1.42v0.03c0,0.83,0.62,1.41,1.64,1.41S22.4,157.04,22.4,156.23z"/>
	<path class="st0" d="M27.27,161.6l1.09-1.57c0.68,0.55,1.26,0.8,2.05,0.8c1.15,0,1.77-0.87,1.9-2.13c-0.46,0.39-1.09,0.64-1.9,0.64
		c-2.04,0-3.35-1.13-3.35-3.03v-0.03c0-1.89,1.46-3.29,3.58-3.29c1.26,0,2,0.31,2.71,1.02c0.67,0.67,1.11,1.69,1.11,3.54v0.03
		c0,3.04-1.43,5.12-4.1,5.12C28.98,162.71,28.06,162.25,27.27,161.6z M32.35,156.23v-0.03c0-0.83-0.62-1.44-1.65-1.44
		c-1.02,0-1.6,0.59-1.6,1.42v0.03c0,0.83,0.62,1.41,1.64,1.41S32.35,157.04,32.35,156.23z"/>
	<path class="st0" d="M52.41,157.32c0,0.05-0.03,0.11-0.09,0.17l-1.3,1.27l0.31,1.8c0,0.02,0,0.04,0,0.07
		c0,0.05-0.01,0.09-0.04,0.13c-0.03,0.04-0.06,0.05-0.11,0.05c-0.05,0-0.09-0.01-0.14-0.04l-1.61-0.85l-1.61,0.85
		c-0.05,0.03-0.1,0.04-0.14,0.04c-0.05,0-0.09-0.02-0.11-0.05c-0.03-0.03-0.04-0.08-0.04-0.13c0-0.01,0-0.04,0.01-0.07l0.31-1.8
		l-1.31-1.27c-0.06-0.06-0.09-0.12-0.09-0.17c0-0.09,0.07-0.14,0.2-0.17l1.8-0.26l0.81-1.63c0.04-0.1,0.1-0.15,0.18-0.15
		s0.13,0.05,0.18,0.15l0.81,1.63l1.8,0.26C52.35,157.18,52.41,157.24,52.41,157.32z"/>
	<path class="st0" d="M63.77,160.91l3.12-2.56c1.17-0.97,1.62-1.48,1.62-2.25c0-0.79-0.52-1.22-1.26-1.22
		c-0.72,0-1.22,0.4-1.92,1.26l-1.45-1.17c0.93-1.26,1.82-1.94,3.5-1.94c1.94,0,3.23,1.14,3.23,2.9v0.03c0,1.57-0.8,2.35-2.47,3.63
		l-1.53,1.18h4.09v1.78h-6.95V160.91z"/>
	<path class="st0" d="M73.26,157.88v-0.03c0-2.72,1.69-4.85,4.18-4.85c2.48,0,4.16,2.1,4.16,4.83v0.03c0,2.72-1.68,4.85-4.18,4.85
		C74.91,162.71,73.26,160.6,73.26,157.88z M79.49,157.88v-0.03c0-1.7-0.83-2.99-2.06-2.99c-1.23,0-2.04,1.25-2.04,2.96v0.03
		c0,1.72,0.82,2.99,2.06,2.99C78.7,160.84,79.49,159.58,79.49,157.88z"/>
	<path class="st0" d="M85.72,155.18l-1.64,0.4l-0.43-1.69l2.69-0.8h1.41v9.45h-2.04V155.18z"/>
	<path class="st0" d="M91.03,161.6l1.09-1.57c0.68,0.55,1.26,0.8,2.05,0.8c1.15,0,1.77-0.87,1.9-2.13c-0.46,0.39-1.09,0.64-1.9,0.64
		c-2.04,0-3.35-1.13-3.35-3.03v-0.03c0-1.89,1.46-3.29,3.58-3.29c1.26,0,2,0.31,2.71,1.02c0.67,0.67,1.11,1.69,1.11,3.54v0.03
		c0,3.04-1.44,5.12-4.1,5.12C92.74,162.71,91.82,162.25,91.03,161.6z M96.11,156.23v-0.03c0-0.83-0.62-1.44-1.65-1.44
		c-1.02,0-1.59,0.59-1.59,1.42v0.03c0,0.83,0.62,1.41,1.63,1.41C95.52,157.63,96.11,157.04,96.11,156.23z"/>
</g>
<g>
	<g>
		<path class="st0" d="M27.66,17.21c6.73-4.53,14.14-6.63,22.62-6.47c10.02,0.2,18.4,2.83,24.23,7.61
			c6.59,5.39,10.03,13.37,10.23,23.73c0.33,17.37-12.1,29.18-31.11,45.22l-43.01,36.2v3.7h88.03l3.59-3.96
			c-1.76-2.02-3.38-4.15-4.84-6.4h-63.8l27.95-23.29c24.07-19.6,35.33-31.25,35.33-52.6v-0.39C96.86,16.3,78.61,0,52.02,0
			C27.76,0,14.94,10.28,1.94,28.53l8.53,6.67C16.49,26.77,21.95,21.05,27.66,17.21z"/>
		<path class="st0" d="M102.55,123.62l-3.7,4.08H10.11v-4.43l0.09-0.08l43.1-36.28c18.9-15.95,31.26-27.69,30.94-44.83
			c-0.22-11.27-4.92-30.26-33.97-30.85c-19.14-0.41-30.24,11.43-39.4,24.27l7.96,6.23c10.48-13.59,19.02-20.38,31.44-20.38
			S72.2,29.12,72.2,42.51c0,12.23-6.79,20.96-25.43,36.68L0,118.98v18.83h103.5v-13.15C103.18,124.32,102.87,123.97,102.55,123.62z"
			/>
	</g>
	<path class="st1" d="M216,85.26l0-0.14l0-0.14l0-0.14l0-0.14l0-0.14l0-0.14l0-0.14l0-0.14l0-0.14l0-0.14l0-0.14l0-0.14l0-0.14
		l0-0.14l0-0.14l0-0.14l-0.01-0.14l-0.01-0.14l-0.01-0.14l-0.01-0.14l-0.01-0.14l-0.01-0.14l-0.01-0.14l-0.01-0.14l-0.01-0.14
		l-0.01-0.14l-0.01-0.14l-0.01-0.14l-0.01-0.14l-0.01-0.14l-0.01-0.14l-0.01-0.14l-0.01-0.14l-0.01-0.14l-0.01-0.14l-0.01-0.14
		l-0.01-0.14l-0.01-0.14l-0.01-0.14l-0.01-0.14l-0.01-0.14l-0.01-0.14l-0.01-0.14l-0.01-0.14l-0.01-0.14l-12.49,1.05
		c0.17,1.81,0.27,3.64,0.27,5.49c0,2.08-0.12,4.12-0.33,6.14l12.45,1.39l0.02-0.2l0.01-0.14l0.01-0.14l0.01-0.14l0.01-0.14
		l0.01-0.14l0.01-0.14l0.01-0.14l0.01-0.14l0.01-0.14l0.01-0.14l0.01-0.14l0.01-0.14l0.01-0.14l0.01-0.14l0.01-0.14l0.01-0.14
		l0.01-0.14l0.01-0.14l0.01-0.14l0.01-0.14l0.01-0.14l0.01-0.14l0.01-0.14l0.01-0.14l0.01-0.14l0.01-0.14l0.01-0.14l0.01-0.14
		l0.01-0.14l0.01-0.14l0.01-0.14l0.01-0.14l0.01-0.14l0.01-0.14l0-0.14l0-0.14l0-0.14l0-0.14l0-0.14l0-0.14l0-0.14l0-0.14l0-0.14
		l0-0.14l0-0.14l0-0.14l0-0.14l0-0.14l0-0.14l0-0.14l0-0.14L216,85.26z"/>
	<path class="st2" d="M203.15,91.45c-0.36,3.43-1.04,6.76-1.97,9.99l12.04,3.49l0.03-0.12l0.03-0.12l0.03-0.12l0.03-0.12l0.03-0.12
		l0.03-0.12l0.03-0.12l0.03-0.12l0.03-0.12l0.03-0.12l0.03-0.12l0.03-0.12l0.03-0.12l0.03-0.12l0.03-0.12l0.03-0.12l0.03-0.12
		l0.03-0.12l0.03-0.12l0.03-0.12l0.03-0.12l0.03-0.12l0.03-0.12l0.03-0.12l0.03-0.12l0.03-0.12l0.03-0.12l0.03-0.12l0.03-0.12
		l0.03-0.12l0.03-0.12l0.03-0.12l0.03-0.12l0.03-0.12l0.03-0.12l0.03-0.12l0.03-0.12l0.03-0.12l0.03-0.12l0.03-0.12l0.03-0.12
		l0.03-0.12l0.03-0.12l0.03-0.12l0.03-0.12l0.03-0.12l0.02-0.12l0.02-0.12l0.02-0.12l0.02-0.12l0.02-0.12l0.02-0.12l0.02-0.12
		l0.02-0.12l0.02-0.12l0.02-0.12l0.02-0.12l0.02-0.12l0.02-0.12l0.02-0.12l0.02-0.12l0.02-0.12l0.02-0.12l0.02-0.12l0.02-0.12
		l0.02-0.12l0.02-0.12l0.02-0.12l0.02-0.12l0.02-0.12l0.02-0.12l0.02-0.12l0.02-0.12l0.02-0.12l0.02-0.12l0.02-0.12l0.02-0.12
		l0.02-0.12l0.02-0.12l0.02-0.12l0.02-0.12l0.02-0.12l0.02-0.12l0.02-0.12l0.02-0.12l0.02-0.12l0.02-0.12l0.02-0.12l0.02-0.12
		l0.02-0.12l0.02-0.12l0.01-0.12l0.01-0.12l0.01-0.12l0.01-0.12l0.01-0.12l0.01-0.12l0.01-0.12L203.15,91.45z"/>
	<path class="st3" d="M201.17,101.44c-0.14,0.47-0.27,0.93-0.41,1.4l11.94,3.79l0.01-0.02l0.01-0.02l0.01-0.02l0.01-0.02l0.01-0.02
		l0.01-0.02l0.01-0.02l0.02-0.05l0.01-0.02l0.01-0.02l0.01-0.02l0.01-0.02l0.01-0.03l0.01-0.02l0.01-0.03l0.02-0.05l0.01-0.02
		l0.01-0.02l0.01-0.02l0.02-0.07l0.01-0.02l0.01-0.02l0.02-0.05l0.01-0.02l0.02-0.05l0.01-0.02l0.01-0.03l0.01-0.02l0.01-0.02
		l0.01-0.02l0.01-0.02l0.02-0.07l0.01-0.02l0.01-0.02l0.01-0.02l0.01-0.02l0.01-0.03l0.02-0.05l0.01-0.03l0.01-0.02l0.01-0.02
		l0.01-0.03l0.02-0.05l0.01-0.02l0.01-0.02l0.01-0.02l0.03-0.1l0.01-0.02l0.01-0.03l0.01-0.02l0.01-0.02l0.01-0.02l0.02-0.05
		l0.02-0.07l0.01-0.02l0.01-0.02l0.01-0.03l0.01-0.02l0.01-0.02l0.01-0.02l0.01-0.02l0.01-0.03L201.17,101.44z"/>
	<path class="st4" d="M202.97,85.21h-12.52l0,0.03l0,0.18l0,0.18l0,0.18l0,0.18l0,0.18l0,0.18l0,0.18l-0.01,0.18l-0.01,0.18
		l-0.01,0.18l-0.01,0.18l-0.01,0.18l-0.01,0.18l-0.01,0.18l-0.01,0.18l-0.01,0.18l-0.01,0.18l-0.01,0.18l-0.01,0.18l-0.01,0.18
		l-0.01,0.18l-0.02,0.18l-0.02,0.18l-0.02,0.18l-0.02,0.18l-0.01,0.08c0,0.04-0.01,0.07-0.01,0.11l-0.02,0.18l-0.02,0.18l-0.02,0.18
		l-0.02,0.18l-0.02,0.18l-0.02,0.18l-0.02,0.18l-0.02,0.18l-0.03,0.18l-0.03,0.18l-0.03,0.18l0,0.03c-0.02,0.12-0.04,0.24-0.05,0.36
		l-0.02,0.16l-0.03,0.18l-0.03,0.18l-0.03,0.18l-0.03,0.18l-0.03,0.18l-0.03,0.18l-0.03,0.18l-0.03,0.18l-0.03,0.13
		c-0.04,0.21-0.08,0.42-0.13,0.62l-0.03,0.14l-0.04,0.18l-0.04,0.18l-0.04,0.18l-0.04,0.18l-0.04,0.18l-0.04,0.18l-0.04,0.18
		l-0.01,0.04c-0.07,0.28-0.14,0.57-0.22,0.85l-0.05,0.17l-0.05,0.18l-0.05,0.18l-0.05,0.18l-0.05,0.18l-0.05,0.17l-0.04,0.15
		c-0.07,0.24-0.14,0.48-0.22,0.73l11.93,3.79c1.74-5.47,2.69-11.29,2.69-17.32C202.97,85.31,202.97,85.26,202.97,85.21z"/>
	<path class="st5" d="M188.38,98.81c-0.04,0.12-0.08,0.23-0.12,0.35l-0.05,0.17l-0.06,0.17l-0.06,0.17l-0.06,0.17l-0.06,0.17
		l-0.06,0.17l-0.01,0.02c-0.12,0.35-0.25,0.69-0.38,1.03l-0.06,0.15l-0.07,0.17l-0.07,0.17l-0.07,0.17l-0.07,0.17l-0.07,0.17
		l-0.02,0.04c-0.13,0.31-0.26,0.62-0.39,0.93l-0.02,0.04l-0.07,0.17l-0.07,0.17l-0.07,0.17l-0.08,0.17l-0.08,0.17l-0.08,0.17
		l-0.05,0.1c-0.12,0.25-0.24,0.51-0.36,0.76l-0.06,0.12l-0.08,0.16l-0.08,0.16l-0.08,0.16l-0.08,0.16l-0.08,0.16l-0.08,0.16
		l-0.09,0.16l-0.01,0.02c-0.1,0.18-0.2,0.36-0.3,0.55l-0.04,0.07l-0.09,0.16l-0.09,0.16l-0.09,0.16l-0.09,0.16l-0.09,0.16
		l-0.09,0.16l-0.09,0.16l-0.09,0.16l-0.05,0.09c-0.07,0.12-0.14,0.24-0.22,0.36l-0.02,0.03l-0.1,0.16l-0.1,0.15l-0.1,0.15l-0.1,0.15
		l-0.1,0.15l-0.1,0.15l-0.1,0.15l-0.1,0.15l-0.1,0.15l-0.1,0.15c-0.04,0.06-0.08,0.12-0.12,0.17l-0.09,0.13l-0.1,0.15l-0.1,0.15
		l-0.1,0.15l-0.1,0.15l-0.11,0.15l-0.11,0.15l-0.11,0.15l-0.11,0.15l-0.11,0.15l-0.11,0.15l-0.02,0.03
		c-0.01,0.02-0.02,0.03-0.03,0.05l-0.05,0.07l-0.11,0.15l-0.11,0.15l-0.11,0.14l-0.11,0.14l-0.11,0.14l-0.11,0.14l-0.11,0.14
		l-0.11,0.14l-0.11,0.14l-0.12,0.14l-0.12,0.14l-0.12,0.14l-0.12,0.14l-0.12,0.14l-0.12,0.14l-0.12,0.14l9.47,8.13
		c4.96-5.77,8.79-12.53,11.15-19.94L188.38,98.81z"/>
	<path class="st6" d="M200.77,102.81c-0.44,1.39-0.95,2.76-1.49,4.11l11.63,4.68l0.02-0.05l0.02-0.05l0.02-0.05l0.02-0.05l0.02-0.05
		l0.02-0.05l0.02-0.05l0.02-0.05l0.02-0.05l0.02-0.05l0.02-0.05l0.02-0.05l0.02-0.05l0.02-0.05l0.02-0.05l0.02-0.05l0.02-0.05
		l0.02-0.05l0.02-0.05l0.02-0.05l0.02-0.05l0.02-0.05l0.02-0.05l0.02-0.05l0.02-0.05l0.02-0.05l0.02-0.05l0.02-0.05l0.02-0.05
		l0.02-0.05l0.02-0.05l0.02-0.05l0.02-0.05l0.02-0.05l0.02-0.05l0.02-0.05l0.02-0.05l0.02-0.05l0.02-0.05l0.02-0.05l0.02-0.05
		l0.02-0.05l0.02-0.05l0.02-0.05l0.02-0.05l0.02-0.05l0.02-0.05l0.02-0.05l0.02-0.05l0.02-0.05l0.02-0.05l0.02-0.05l0.02-0.05
		l0.02-0.05l0.02-0.05l0.02-0.05l0.02-0.05l0.02-0.05l0.02-0.05l0.02-0.05l0.02-0.05l0.02-0.05l0.02-0.05l0.02-0.05l0.02-0.05
		l0.02-0.05l0.02-0.05l0.02-0.05l0.02-0.05l0.02-0.05l0.02-0.05l0.02-0.05l0.02-0.05l0.02-0.05l0.02-0.05l0.02-0.05l0.02-0.05
		l0.02-0.05l0.02-0.05l0.02-0.05l0.02-0.05l0.02-0.05l0.02-0.05l0.02-0.05l0.02-0.05l0.02-0.05l0.02-0.05l0.02-0.05l0.02-0.05
		l0.02-0.05l0.02-0.05l0.02-0.05l0.02-0.05l0.02-0.05l0.02-0.05l0.02-0.05l0.02-0.05l0.02-0.08L200.77,102.81z"/>
	<path class="st7" d="M205.32,122.59l0.05-0.08l0.05-0.08l0.05-0.08l0.05-0.08l0.05-0.08l0.05-0.08l0.05-0.08l0.05-0.08l0.05-0.08
		l0.05-0.08l0.05-0.08l0.05-0.08l0.05-0.08l0.05-0.08l0.05-0.08l0.05-0.08l0.05-0.08l0.05-0.08l0.05-0.08l0.05-0.08l0.05-0.08
		l0.05-0.08l0.05-0.08l0.05-0.08l0.05-0.08l0.04-0.08l0.04-0.08l0.04-0.08l0.04-0.08l0.04-0.08l0.04-0.08l0.04-0.08l0.04-0.08
		l0.04-0.08l0.04-0.08l0.04-0.08l0.04-0.08l0.04-0.08l0.04-0.08l0.04-0.08l0.04-0.08l0.04-0.08l0.04-0.08l0.04-0.08l0.04-0.08
		l0.04-0.08l0.04-0.08l0.04-0.08l0.04-0.08l0.04-0.08l0.04-0.08l0.04-0.08l0.04-0.08l0.04-0.08l0.04-0.08l0.04-0.08l0.04-0.08
		l0.04-0.08l0.04-0.08l0.04-0.08l0.04-0.08l0.04-0.08l0.04-0.08l0.04-0.08l0.04-0.08l0.04-0.08l0.04-0.08l0.04-0.08l0.04-0.08
		l0.04-0.08l0.04-0.08l0.04-0.08l0.04-0.08l0.04-0.08l0.04-0.08l0.04-0.08l0.04-0.08l0.04-0.08l0.04-0.08l0.04-0.08l0.04-0.08
		l0.04-0.08l0.04-0.08l0.04-0.08l0.04-0.08l0.04-0.08l0.04-0.08l0.04-0.08l0.04-0.08l0.04-0.08l0.04-0.08l0.04-0.08l0.04-0.08
		l0.04-0.08l0.04-0.08l0.04-0.08l0.04-0.08l0.04-0.08l-11.35-5.34c-1.02,2.21-2.18,4.35-3.47,6.4L205.32,122.59z"/>
	<path class="st8" d="M199.28,106.91c-0.36,0.9-0.75,1.79-1.16,2.67l11.37,5.3l0.03-0.07l0.02-0.03l0.01-0.03l0.01-0.03l0.01-0.03
		l0.01-0.03l0.01-0.03l0.01-0.03l0.01-0.03l0.01-0.03l0.01-0.03l0.01-0.03l0.01-0.03l0.01-0.03l0.01-0.03l0.01-0.03l0.01-0.03
		l0.01-0.03l0.01-0.03l0.01-0.03l0.01-0.03l0.01-0.03l0.01-0.03l0.01-0.03l0.01-0.03l0.01-0.03l0.01-0.03l0.01-0.03l0.01-0.03
		l0.01-0.03l0.01-0.03l0.01-0.03l0.01-0.03l0.01-0.03l0.01-0.03l0.01-0.03l0.01-0.03l0.01-0.03l0.01-0.03l0.01-0.03l0.01-0.03
		l0.01-0.03l0.01-0.03l0.01-0.03l0.01-0.03l0.01-0.03l0.01-0.03l0.01-0.03l0.01-0.03l0.01-0.03l0.01-0.03l0.01-0.03l0.01-0.03
		l0.01-0.03l0.01-0.03l0.01-0.03l0.01-0.03l0.01-0.03l0.01-0.03l0.01-0.03l0.01-0.03l0.01-0.03l0.01-0.03l0.01-0.03l0.01-0.03
		l0.01-0.03l0.01-0.03l0.01-0.03l0.01-0.03l0.01-0.03l0.01-0.03l0.01-0.03l0.01-0.03l0.01-0.03l0.01-0.03l0.01-0.03l0.01-0.03
		l0.01-0.03l0.01-0.03l0.01-0.03l0.01-0.03l0.01-0.03l0.01-0.03l0.01-0.03l0.01-0.03l0.01-0.03l0.01-0.03l0.01-0.03l0.01-0.03
		l0.01-0.03l0.01-0.03l0.01-0.03l0.01-0.03l0.01-0.03l0.01-0.03l0.01-0.03l0.01-0.03l0.02-0.05L199.28,106.91z"/>
	<path class="st9" d="M199.05,131.12l0.07-0.08l0.07-0.08l0.07-0.08l0.07-0.08l0.07-0.08l0.07-0.08l0.07-0.08l0.07-0.08l0.07-0.08
		l0.07-0.08l0.07-0.08l0.07-0.08l0.07-0.08l0.07-0.08l0.07-0.08l0.07-0.08l0.07-0.08l0.07-0.08l0.07-0.08l0.07-0.08l0.07-0.08
		l0.07-0.08l0.07-0.08l0.07-0.08l0.07-0.08l0.07-0.08l0.07-0.08l0.07-0.08l0.07-0.08l0.07-0.08l0.07-0.08l0.07-0.08l0.07-0.08
		l0.07-0.09l0.07-0.09l0.07-0.09l0.07-0.09l0.07-0.09l0.07-0.09l0.06-0.09l0.06-0.09l0.06-0.09l0.06-0.09l0.06-0.09l0.06-0.09
		l0.06-0.09l0.06-0.09l0.06-0.09l0.06-0.09l0.06-0.09l0.06-0.09l0.06-0.09l0.06-0.09l0.06-0.09l0.06-0.09l0.06-0.09l0.06-0.09
		l0.06-0.09l0.06-0.09l0.06-0.09l0.06-0.09l0.06-0.09l0.06-0.09l0.06-0.09l0.06-0.09l0.06-0.09l0.06-0.09l0.06-0.09l0.06-0.09
		l0.06-0.09l0.06-0.09l0.06-0.09l0.06-0.09l0.06-0.09l0.06-0.09l0.06-0.09l0.06-0.09l0.06-0.09l0.06-0.09l0.06-0.09l0.06-0.09
		l0.06-0.09l0.06-0.09l0.06-0.09l0.06-0.09l0.06-0.09l0.06-0.09l0.06-0.09l0.06-0.09l0.06-0.09l0.06-0.09l0.06-0.09l0.06-0.09
		l0.06-0.09l0.06-0.09l0.06-0.09l0.06-0.09l0.09-0.14l-10.62-6.69c-1.55,2.47-3.28,4.82-5.18,7.03L199.05,131.12z"/>
	<path class="st10" d="M115.95,21.73l-0.15,0.07l-0.15,0.07l-0.15,0.07L115.36,22l-0.15,0.07l-0.15,0.07l-0.14,0.07l-0.14,0.07
		l-0.14,0.07l-0.14,0.07l-0.14,0.07l-0.14,0.07l-0.14,0.07l-0.14,0.07l-0.14,0.07l-0.14,0.07l-0.14,0.07l-0.14,0.07l-0.14,0.07
		l-0.14,0.07l-0.14,0.08l-0.14,0.08l-0.14,0.08l-0.14,0.08l-0.14,0.08l-0.14,0.08l-0.14,0.08l-0.14,0.08l-0.14,0.08l-0.14,0.08
		L111.5,24l-0.14,0.08l-0.14,0.08l-0.14,0.08l-0.14,0.08l-0.14,0.08l-0.14,0.08l-0.14,0.08l-0.14,0.08l-0.14,0.08l-0.14,0.08
		l-0.14,0.08l-0.14,0.08l-0.14,0.08l-0.14,0.08l-0.14,0.08l-0.14,0.08l-0.14,0.08L109,25.47l-0.14,0.08l-0.14,0.08l-0.14,0.09
		l-0.14,0.09l-0.14,0.09l-0.14,0.09l-0.14,0.09l-0.14,0.09l-0.14,0.09l-0.14,0.09l-0.14,0.09l-0.14,0.09l-0.13,0.09l-0.13,0.09
		l-0.13,0.09l-0.13,0.09l-0.13,0.09l-0.13,0.09l-0.13,0.09l-0.13,0.09l-0.13,0.09l-0.13,0.09l-0.13,0.09l-0.13,0.09l-0.13,0.09
		l-0.13,0.09l-0.13,0.09l-0.13,0.09l-0.13,0.09l-0.13,0.09l-0.13,0.09l-0.13,0.09l-0.13,0.09l-0.13,0.09l-0.13,0.09l-0.13,0.1
		l-0.13,0.1l-0.13,0.1l-0.13,0.1l-0.13,0.1l-0.13,0.1l-0.13,0.1l-0.13,0.1l-0.13,0.1l-0.13,0.1l-0.13,0.1l-0.13,0.1l-0.13,0.1
		l-0.19,0.15l7.69,9.94c3.42-2.68,7.14-4.99,11.11-6.86L115.95,21.73z"/>
	<path class="st11" d="M125.23,31.4l-4.36-11.76l-0.1,0.04l-0.05,0.02l-0.05,0.02l-0.05,0.02l-0.05,0.02l-0.05,0.02l-0.05,0.02
		l-0.05,0.02l-0.05,0.02l-0.05,0.02l-0.05,0.02l-0.05,0.02l-0.05,0.02l-0.05,0.02l-0.05,0.02l-0.05,0.02L119.97,20l-0.05,0.02
		l-0.05,0.02l-0.05,0.02l-0.05,0.02l-0.05,0.02l-0.05,0.02l-0.05,0.02l-0.05,0.02l-0.05,0.02l-0.05,0.02l-0.05,0.02l-0.05,0.02
		l-0.05,0.02l-0.05,0.02l-0.05,0.02l-0.05,0.02l-0.05,0.02l-0.05,0.02l-0.05,0.02l-0.05,0.02l-0.05,0.02l-0.05,0.02l-0.05,0.02
		l-0.05,0.02l-0.05,0.02l-0.05,0.02l-0.05,0.02l-0.05,0.02l-0.05,0.02l-0.05,0.02l-0.05,0.02l-0.05,0.02l-0.05,0.02l-0.05,0.02
		l-0.05,0.02l-0.05,0.02l-0.05,0.02l-0.05,0.02l-0.05,0.02l-0.05,0.02l-0.05,0.02l-0.05,0.02l-0.05,0.02l-0.05,0.02l-0.05,0.02
		l-0.05,0.02l-0.05,0.02l-0.05,0.02l-0.05,0.02l-0.05,0.02l-0.05,0.02l-0.05,0.02l-0.05,0.02l-0.05,0.02l-0.05,0.02l-0.05,0.02
		l-0.05,0.02l-0.05,0.02l-0.05,0.02L117,21.25l-0.05,0.02l-0.05,0.02l-0.05,0.02l-0.05,0.02l-0.05,0.02l-0.05,0.02l-0.05,0.02
		l-0.05,0.02l-0.05,0.02l-0.05,0.02l-0.05,0.02l-0.05,0.02l-0.05,0.02l-0.05,0.02l-0.05,0.02l-0.05,0.02l-0.05,0.02l-0.05,0.02
		l-0.05,0.02l-0.05,0.02l-0.07,0.03l5.32,11.36C122.56,32.48,123.88,31.92,125.23,31.4z"/>
	<path class="st12" d="M133.6,28.92l-2.64-12.25l-0.11,0.02l-0.1,0.02l-0.1,0.02l-0.1,0.02l-0.1,0.02l-0.1,0.02l-0.1,0.02l-0.1,0.02
		l-0.1,0.02l-0.1,0.02l-0.1,0.02l-0.1,0.02l-0.1,0.02l-0.1,0.02l-0.1,0.02l-0.1,0.03l-0.1,0.03l-0.1,0.03l-0.1,0.03l-0.1,0.03
		l-0.1,0.03l-0.1,0.03l-0.1,0.03l-0.1,0.03l-0.1,0.03l-0.1,0.03l-0.1,0.03l-0.1,0.03l-0.1,0.03l-0.1,0.03l-0.1,0.03l-0.1,0.03
		l-0.1,0.03l-0.1,0.03l-0.1,0.03l-0.1,0.03l-0.1,0.03l-0.1,0.03l-0.1,0.03l-0.1,0.03l-0.1,0.03l-0.1,0.03l-0.1,0.03l-0.1,0.03
		l-0.1,0.03l-0.1,0.03l-0.1,0.03l-0.1,0.03l-0.1,0.03l-0.1,0.03l-0.1,0.03l-0.1,0.03l-0.1,0.03l-0.1,0.03l-0.1,0.03l-0.1,0.03
		l-0.1,0.03l-0.1,0.03l-0.1,0.03l-0.1,0.03l-0.1,0.03l-0.1,0.03l-0.1,0.03l-0.1,0.03l-0.1,0.03l-0.1,0.03l-0.1,0.03l-0.1,0.03
		l-0.1,0.03l-0.1,0.03l-0.1,0.03l-0.1,0.03l-0.1,0.03l-0.1,0.03l-0.1,0.03l-0.1,0.03l-0.1,0.03l-0.1,0.03l-0.1,0.04l-0.1,0.04
		l-0.1,0.04l-0.1,0.04l-0.1,0.04l-0.1,0.04l-0.1,0.04l-0.1,0.04l-0.1,0.04l-0.1,0.04l-0.1,0.04l-0.1,0.04l-0.1,0.04l-0.1,0.04
		l-0.1,0.04l-0.1,0.04l-0.1,0.04l-0.1,0.04l-0.1,0.04l-0.1,0.04l4.4,11.74C127.95,30.36,130.73,29.54,133.6,28.92z"/>
	<path class="st13" d="M117.85,50.43c5.69-4.55,12.51-7.73,19.98-9.06l-2.63-12.25c-9.34,1.75-17.88,5.77-25.04,11.47L117.85,50.43z
		"/>
	<path class="st14" d="M88.68,76.52l-12.36-2l-0.03,0.17l-0.01,0.09l-0.01,0.09l-0.01,0.09l-0.01,0.09l-0.01,0.09l-0.01,0.09
		l-0.01,0.09l-0.01,0.09l-0.01,0.09l-0.01,0.09l-0.01,0.09l-0.01,0.09l-0.01,0.09l-0.01,0.09l-0.01,0.09l-0.01,0.09l-0.01,0.09
		l-0.01,0.09l-0.01,0.09l-0.01,0.09l-0.01,0.09l-0.01,0.09l-0.01,0.09L76,76.82l-0.01,0.09L75.98,77l-0.01,0.09l-0.01,0.09
		l-0.01,0.09l-0.01,0.09l-0.01,0.09l-0.01,0.09l-0.01,0.09l-0.01,0.09l-0.01,0.09l-0.01,0.09l-0.01,0.09l-0.01,0.09l-0.01,0.09
		l-0.01,0.09l-0.01,0.09l-0.01,0.09l-0.01,0.09L75.8,78.6l-0.01,0.09l-0.01,0.09l-0.01,0.09l-0.01,0.09l-0.01,0.09l-0.01,0.09
		l-0.01,0.09l-0.01,0.09l-0.01,0.09l-0.01,0.09l-0.01,0.09l-0.01,0.09l-0.01,0.09l-0.01,0.09l-0.01,0.09l-0.01,0.09l-0.01,0.09
		l-0.01,0.09l-0.01,0.09l-0.01,0.09l-0.01,0.09l-0.01,0.09l-0.01,0.09l-0.01,0.09l-0.01,0.09l-0.01,0.09l-0.01,0.09l-0.01,0.09
		l-0.01,0.09l-0.01,0.09l-0.01,0.09l-0.01,0.09l0,0.09l0,0.09l0,0.09l0,0.09l0,0.09l0,0.09l0,0.09l0,0.09l0,0.09l0,0.09l0,0.09
		l0,0.09l0,0.09l0,0.09l0,0.09l0,0.09l0,0.09l0,0.09l0,0.09l0,0.09l0,0.13l12.54,0.39C88.11,81.31,88.31,78.89,88.68,76.52z"/>
	<g>
		<path class="st15" d="M92.13,63.97l-11.65-4.65l-0.06,0.15l-0.06,0.15l-0.06,0.15l-0.06,0.15l-0.06,0.15l-0.06,0.15l-0.06,0.15
			l-0.06,0.15l-0.06,0.15l-0.06,0.15l-0.06,0.15l-0.06,0.15l-0.06,0.15l-0.06,0.15l-0.05,0.15l-0.05,0.15l-0.05,0.15l-0.05,0.15
			l-0.05,0.15l-0.05,0.15l-0.05,0.15l-0.05,0.15L79.2,62.8l-0.05,0.15l-0.05,0.15l-0.05,0.15l-0.05,0.15l-0.05,0.15l-0.05,0.15
			l-0.05,0.15l-0.05,0.15l-0.05,0.15l-0.05,0.15l-0.05,0.15l-0.05,0.15l-0.05,0.15l-0.05,0.15l-0.05,0.15l-0.05,0.15l-0.05,0.15
			l-0.05,0.15l-0.05,0.15l-0.04,0.15l-0.04,0.15l-0.04,0.15l-0.04,0.16l-0.04,0.16l-0.04,0.16l-0.04,0.16l-0.04,0.16l-0.04,0.16
			l-0.04,0.16l-0.04,0.16l-0.04,0.16l-0.04,0.16l-0.04,0.16l-0.04,0.16L77.6,68.2l-0.04,0.16l-0.04,0.16l-0.04,0.16l-0.04,0.16
			l-0.04,0.16l-0.04,0.16l-0.04,0.16l-0.04,0.16l-0.04,0.16l-0.04,0.16l-0.04,0.16l-0.04,0.16l-0.03,0.16l-0.03,0.16l-0.03,0.16
			l-0.03,0.16l-0.03,0.16l-0.03,0.16l-0.03,0.16l-0.03,0.16l-0.03,0.16l-0.03,0.16l-0.03,0.16l-0.03,0.16l-0.03,0.16L76.7,72.3
			l-0.03,0.16l-0.03,0.16l-0.03,0.16l-0.03,0.16l-0.03,0.16l-0.03,0.16l-0.03,0.16l-0.03,0.16l-0.03,0.16l-0.03,0.16l-0.03,0.16
			l-0.03,0.16l-0.03,0.16l-0.03,0.16l12.35,2.06C89.34,72.19,90.52,67.97,92.13,63.97z"/>
		<path class="st16" d="M93.89,59.99l-11.26-5.51l-0.02,0.03l-0.02,0.03l-0.02,0.03l-0.02,0.03l-0.02,0.03l-0.02,0.03l-0.02,0.03
			l-0.02,0.03l-0.02,0.03l-0.02,0.03l-0.02,0.03l-0.02,0.03l-0.02,0.03l-0.02,0.03l-0.02,0.03L82.38,55l-0.02,0.03l-0.02,0.03
			l-0.02,0.03l-0.02,0.03l-0.02,0.03l-0.02,0.03l-0.02,0.03l-0.02,0.03l-0.02,0.03l-0.02,0.03l-0.02,0.03l-0.02,0.03l-0.02,0.03
			l-0.02,0.03l-0.02,0.03l-0.02,0.03l-0.02,0.03l-0.02,0.03l-0.02,0.03l-0.02,0.03l-0.02,0.03l-0.02,0.03l-0.02,0.03l-0.02,0.03
			l-0.02,0.03l-0.02,0.03l-0.02,0.03l-0.02,0.03l-0.02,0.03l-0.02,0.03L81.9,56l-0.01,0.03l-0.01,0.03l-0.01,0.03l-0.01,0.03
			l-0.01,0.03l-0.01,0.03l-0.01,0.03l-0.01,0.03l-0.01,0.03l-0.01,0.03l-0.01,0.03l-0.01,0.03l-0.01,0.03l-0.01,0.03l-0.01,0.03
			l-0.01,0.03l-0.01,0.03l-0.01,0.03l-0.01,0.03l-0.01,0.03l-0.01,0.03l-0.01,0.03l-0.01,0.03l-0.01,0.03l-0.01,0.03l-0.01,0.03
			l-0.01,0.03l-0.01,0.03l-0.01,0.03l-0.01,0.03l-0.01,0.03l-0.01,0.03l-0.01,0.03l-0.01,0.03l-0.01,0.03l-0.01,0.03l-0.01,0.03
			l-0.01,0.03l-0.01,0.03l-0.01,0.03l-0.01,0.03l-0.01,0.03l-0.01,0.03l-0.01,0.03l-0.01,0.03l-0.01,0.03l-0.01,0.03l-0.01,0.03
			l-0.01,0.03l-0.01,0.03l-0.02,0.05l11.51,4.95C93.05,61.74,93.46,60.86,93.89,59.99z"/>
		<path class="st16" d="M90.05,42.51l-0.07,0.09l-0.07,0.09l-0.07,0.09l-0.07,0.09l-0.06,0.09l-0.06,0.09l-0.06,0.09l-0.06,0.09
			l-0.06,0.09l-0.06,0.09l-0.06,0.09l-0.06,0.09l-0.06,0.09l-0.06,0.09l-0.06,0.09l-0.06,0.09l-0.06,0.09l-0.06,0.09l-0.06,0.09
			l-0.06,0.09l-0.06,0.09l-0.06,0.09l-0.06,0.09l-0.06,0.09l-0.06,0.09l-0.06,0.09l-0.06,0.09l-0.06,0.09l-0.06,0.09l-0.06,0.09
			l-0.06,0.09l-0.06,0.09l-0.06,0.09l-0.06,0.09l-0.06,0.09l-0.06,0.09l-0.06,0.09l-0.06,0.09l-0.06,0.09l-0.06,0.09l-0.06,0.09
			l-0.06,0.09l-0.06,0.09l-0.06,0.09l-0.06,0.09l-0.06,0.09l-0.06,0.09l-0.06,0.09L87,46.8l-0.06,0.09l-0.06,0.09l-0.06,0.09
			l-0.06,0.09l-0.06,0.09l-0.06,0.09l-0.06,0.09l-0.06,0.09l-0.06,0.09l-0.06,0.09l-0.06,0.09l-0.06,0.09l-0.06,0.09l-0.06,0.09
			l-0.06,0.09l-0.06,0.09l-0.06,0.09l-0.06,0.09l-0.06,0.09l-0.06,0.09l-0.06,0.09l-0.06,0.09l-0.06,0.09l-0.06,0.09l-0.06,0.09
			l-0.06,0.09l-0.06,0.09l-0.06,0.09l-0.05,0.09l-0.05,0.09l-0.05,0.09l-0.05,0.09l-0.05,0.09l-0.05,0.09L85.02,50l-0.05,0.09
			l-0.05,0.09l-0.05,0.09l-0.05,0.09l-0.05,0.09l-0.05,0.09l-0.05,0.09l-0.05,0.09l-0.05,0.09l-0.05,0.09l-0.05,0.09l-0.05,0.09
			l-0.05,0.09l-0.08,0.14l10.96,6.11c1.42-2.56,3.03-4.99,4.8-7.29L90.05,42.51z"/>
		<path class="st17" d="M81.15,57.69l-0.01,0.02l-0.01,0.02l-0.01,0.02l-0.01,0.02l-0.01,0.02l-0.01,0.02l-0.01,0.02l-0.01,0.02
			l-0.01,0.02l-0.01,0.02l-0.01,0.02l-0.01,0.02l-0.01,0.02l-0.01,0.02l-0.01,0.02l-0.01,0.02l-0.01,0.02l-0.01,0.02L81.02,58
			l-0.01,0.02l-0.01,0.02L81,58.05l-0.01,0.02l-0.01,0.02l-0.01,0.02l-0.01,0.02l-0.01,0.02l-0.01,0.02l-0.01,0.02l-0.01,0.02
			l-0.01,0.02l-0.01,0.02l-0.01,0.02l-0.01,0.02l-0.01,0.02l-0.01,0.02L80.9,58.3l-0.01,0.02l-0.01,0.02l-0.01,0.02l-0.01,0.02
			l-0.01,0.02l-0.01,0.02l-0.01,0.02l-0.01,0.02l-0.01,0.02l-0.01,0.02l-0.01,0.02l-0.01,0.02l-0.01,0.02l-0.01,0.02l-0.01,0.02
			l-0.01,0.02l-0.01,0.02l-0.01,0.02l-0.01,0.02l-0.01,0.02l-0.01,0.02l-0.01,0.02l-0.01,0.02l-0.01,0.02l-0.01,0.02l-0.01,0.02
			l-0.01,0.02l-0.01,0.02l-0.01,0.02l-0.01,0.02l-0.01,0.02l-0.01,0.02l-0.01,0.02l-0.01,0.02l-0.01,0.02l-0.01,0.02l-0.01,0.02
			l-0.01,0.02l-0.01,0.02l-0.01,0.02l-0.01,0.02l-0.01,0.02l-0.01,0.02l-0.01,0.02l-0.01,0.02l-0.01,0.02l-0.01,0.02l-0.01,0.02
			l-0.01,0.02l-0.01,0.02l-0.01,0.02l-0.01,0.02l-0.01,0.02l-0.01,0.02l-0.01,0.02l-0.01,0.02l-0.01,0.02l-0.01,0.02l-0.01,0.02
			l-0.01,0.02l-0.01,0.02l11.64,4.66c0.18-0.45,0.36-0.9,0.55-1.35L81.15,57.69z"/>
		<path class="st18" d="M83.42,52.91l-0.01,0.02l-0.01,0.02l-0.01,0.02l-0.01,0.02l-0.01,0.02L83.37,53l-0.01,0.02l-0.01,0.02
			l-0.01,0.02l-0.01,0.02l-0.01,0.02l-0.01,0.02l-0.01,0.02l-0.01,0.02l-0.01,0.02l-0.01,0.02l-0.01,0.02l-0.01,0.02l-0.01,0.02
			l-0.01,0.02l-0.01,0.02l-0.01,0.02l-0.01,0.02l-0.01,0.02l-0.01,0.02l-0.01,0.02l-0.01,0.02l-0.01,0.02l-0.01,0.02l-0.01,0.02
			l-0.01,0.02l-0.01,0.02l-0.01,0.02l-0.01,0.02l-0.01,0.02l-0.01,0.02l-0.01,0.02l-0.01,0.02l-0.01,0.02l-0.01,0.02l-0.01,0.02
			l-0.01,0.02l-0.01,0.02l-0.01,0.02l-0.01,0.02l-0.01,0.02l-0.01,0.02l-0.01,0.02l-0.01,0.02l-0.01,0.02L83,53.72L83,53.73
			l-0.01,0.02l-0.01,0.02l-0.01,0.02l-0.01,0.02l-0.01,0.02l-0.01,0.02l-0.01,0.02l-0.01,0.02l-0.01,0.02l-0.01,0.02l-0.01,0.02
			l-0.01,0.02l-0.01,0.02l-0.01,0.02l-0.01,0.02l-0.01,0.02l-0.01,0.02l-0.01,0.02l-0.01,0.02l-0.01,0.02l-0.01,0.02l-0.01,0.02
			l-0.01,0.02l-0.01,0.02l-0.01,0.02l-0.01,0.02l-0.01,0.02l-0.01,0.02l-0.01,0.02l-0.01,0.02l-0.01,0.02l-0.01,0.02l-0.01,0.02
			l-0.01,0.02l-0.01,0.02l-0.01,0.02l-0.01,0.02l-0.01,0.02l-0.01,0.02l-0.01,0.02l-0.01,0.02l-0.01,0.02l-0.01,0.02l-0.01,0.02
			l-0.01,0.02l-0.01,0.02L93.89,60c0.21-0.43,0.44-0.86,0.66-1.29L83.42,52.91z"/>
		<path class="st19" d="M84.25,51.35l-0.01,0.02l-0.01,0.02l-0.01,0.02l-0.01,0.02l-0.01,0.02l-0.01,0.02l-0.01,0.02l-0.01,0.02
			l-0.01,0.02l-0.01,0.02l-0.01,0.02l-0.01,0.02l-0.01,0.02l-0.01,0.02l-0.01,0.02l-0.01,0.02l-0.01,0.02l-0.01,0.02l-0.01,0.02
			l-0.01,0.02l-0.01,0.02l-0.01,0.02l-0.01,0.02l-0.01,0.02l-0.01,0.02l-0.01,0.02l-0.01,0.02l-0.01,0.02L84,51.81L84,51.82
			l-0.01,0.02l-0.01,0.02l-0.01,0.02l-0.01,0.02l-0.01,0.02l-0.01,0.02l-0.01,0.02l-0.01,0.02l-0.01,0.02l-0.01,0.02L83.9,52
			l-0.01,0.02l-0.01,0.02l-0.01,0.02l-0.01,0.02l-0.01,0.02l-0.01,0.02l-0.01,0.02l-0.01,0.02l-0.01,0.02l-0.01,0.02l-0.01,0.02
			l-0.01,0.02l-0.01,0.02l-0.01,0.02l-0.01,0.02l-0.01,0.02l-0.01,0.02l-0.01,0.02l-0.01,0.02l-0.01,0.02l-0.01,0.02l-0.01,0.02
			l-0.01,0.02l-0.01,0.02l-0.01,0.02l-0.01,0.02l-0.01,0.02l-0.01,0.02l-0.01,0.02l-0.01,0.02l-0.01,0.02l-0.01,0.02l-0.01,0.02
			l-0.01,0.02l-0.01,0.02l-0.01,0.02l-0.01,0.02l-0.01,0.02l-0.01,0.02l-0.01,0.02l-0.01,0.02l-0.01,0.02l-0.01,0.02l-0.01,0.02
			l-0.01,0.02l-0.01,0.02l-0.01,0.02l-0.01,0.02l-0.01,0.02l-0.01,0.02l-0.01,0.02l-0.01,0.02l-0.01,0.02l-0.01,0.02l-0.01,0.02
			l-0.01,0.02l-0.01,0.02l11.13,5.8c0,0,0,0,0-0.01c0.22-0.43,0.45-0.86,0.68-1.28L84.25,51.35z"/>
		<path class="st20" d="M107.94,41.77l-8.22-9.51l-0.11,0.09l-0.11,0.09l-0.11,0.09l-0.11,0.09l-0.11,0.09l-0.11,0.1l-0.11,0.1
			l-0.11,0.1l-0.11,0.1l-0.11,0.1l-0.11,0.1l-0.11,0.1l-0.11,0.1l-0.11,0.1l-0.11,0.1l-0.11,0.1l-0.11,0.1l-0.1,0.1l-0.1,0.1
			l-0.1,0.1l-0.1,0.1l-0.1,0.1l-0.1,0.1l-0.1,0.1l-0.1,0.1l-0.1,0.1l-0.1,0.1l-0.1,0.1l-0.1,0.1l-0.1,0.1l-0.1,0.1l-0.1,0.1
			l-0.1,0.1l-0.1,0.1l-0.1,0.1l-0.1,0.1l-0.1,0.1l-0.1,0.1l-0.1,0.1l-0.1,0.1l-0.1,0.1l-0.1,0.1l-0.1,0.1l-0.1,0.1l-0.1,0.1
			l-0.1,0.1l-0.1,0.1l-0.1,0.1l-0.1,0.1l-0.1,0.1l-0.1,0.1l-0.1,0.1l-0.1,0.1l-0.1,0.11l-0.1,0.11l-0.1,0.11l-0.1,0.11l-0.1,0.11
			l-0.1,0.11l-0.1,0.11l-0.1,0.11l-0.1,0.11l-0.1,0.11l-0.1,0.11l-0.1,0.11l-0.09,0.11l-0.09,0.11l-0.09,0.11l-0.09,0.11l-0.09,0.11
			l-0.09,0.11l-0.09,0.11l-0.09,0.11l-0.09,0.11l-0.09,0.11L92.08,40l-0.09,0.11l-0.09,0.11l-0.09,0.11l-0.09,0.11l-0.09,0.11
			l-0.09,0.11l-0.09,0.11l-0.09,0.11l-0.09,0.11l-0.09,0.11l-0.09,0.11l-0.09,0.11l-0.09,0.11l-0.09,0.11l-0.09,0.11l-0.09,0.11
			l-0.09,0.11L90.45,42l-0.09,0.11l-0.09,0.11l-0.09,0.11l-0.13,0.17l9.92,7.71C102.34,47.14,105.02,44.31,107.94,41.77z"/>
		<path class="st21" d="M102.45,30.02l-0.03,0.02l-0.03,0.02l-0.03,0.02l-0.03,0.02l-0.03,0.02l-0.03,0.02l-0.03,0.02l-0.03,0.02
			l-0.03,0.02l-0.03,0.02l-0.03,0.02l-0.03,0.02l-0.03,0.02l-0.03,0.02l-0.03,0.02L102,30.37l-0.03,0.02l-0.03,0.02l-0.03,0.02
			l-0.03,0.02l-0.03,0.02l-0.03,0.02l-0.03,0.02l-0.03,0.02l-0.03,0.02l-0.03,0.02l-0.03,0.02l-0.03,0.02l-0.03,0.02l-0.03,0.02
			l-0.03,0.02l-0.03,0.02l-0.03,0.02l-0.03,0.02l-0.03,0.02l-0.03,0.02l-0.03,0.02l-0.03,0.02l-0.03,0.02l-0.03,0.02l-0.03,0.02
			l-0.03,0.02l-0.03,0.02L101.22,31l-0.03,0.02l-0.03,0.02l-0.03,0.02l-0.03,0.02l-0.03,0.02l-0.03,0.02l-0.03,0.02L101,31.19
			l-0.03,0.02l-0.03,0.02l-0.03,0.02l-0.03,0.02l-0.03,0.02l-0.03,0.02l-0.03,0.02l-0.03,0.02l-0.03,0.02l-0.03,0.02l-0.03,0.02
			l-0.03,0.02l-0.03,0.02l-0.03,0.02l-0.03,0.02l-0.03,0.02l-0.03,0.02l-0.03,0.02l-0.03,0.02l-0.03,0.02l-0.03,0.02l-0.03,0.02
			l-0.03,0.02l-0.03,0.02l-0.03,0.02l-0.03,0.02l-0.03,0.02l-0.03,0.02l-0.03,0.02l-0.03,0.02l-0.03,0.02l-0.03,0.02l-0.03,0.02
			l-0.03,0.02l-0.03,0.02l-0.03,0.02l-0.03,0.02l-0.03,0.02l-0.03,0.02l-0.03,0.02l-0.03,0.02l-0.03,0.02l-0.03,0.02l-0.03,0.02
			l-0.03,0.02l-0.04,0.04l8.22,9.51c0,0,0.01-0.01,0.01-0.01c0.73-0.63,1.47-1.25,2.23-1.84L102.45,30.02z"/>
		<path class="st22" d="M88.54,83.75l12.5,0.35l0.01-0.2l0.01-0.4l0.02-0.4l0.02-0.4l0.03-0.4l0.03-0.4l0.03-0.4l0.04-0.4l0.03-0.25
			c0-0.04,0.01-0.09,0.01-0.13l0-0.01l0.04-0.4l0.05-0.4l0.05-0.4l0.05-0.4l0.06-0.39l0-0.01c0.02-0.12,0.04-0.25,0.06-0.37l0-0.01
			l0.06-0.39l0.07-0.39l0.07-0.39l0.07-0.39l0.02-0.11c0.04-0.22,0.09-0.44,0.13-0.65l0-0.02l0.09-0.39l0.09-0.39l0.09-0.39
			l0.05-0.2c0.07-0.3,0.15-0.6,0.23-0.9l0.02-0.06l0.11-0.38l0.11-0.38l0.09-0.32c0.11-0.36,0.22-0.71,0.33-1.06l0.05-0.14
			l0.13-0.38l0.13-0.38l0.03-0.08c0.13-0.36,0.25-0.71,0.39-1.06l0.13-0.35l0.15-0.37l0.11-0.28c0.14-0.33,0.27-0.66,0.42-0.99
			l0.09-0.2l0.16-0.36l0.17-0.36l0.07-0.15c0.13-0.27,0.26-0.54,0.39-0.81l0.06-0.12l0.18-0.36l0.18-0.35l0.19-0.35l0.03-0.06
			c0.1-0.19,0.21-0.39,0.31-0.58l0.04-0.07l0.19-0.35l0.2-0.35l0.2-0.34l0.17-0.29c0.07-0.12,0.15-0.25,0.22-0.37l0.01-0.02
			l0.21-0.34l0.21-0.34l0.22-0.34l0.22-0.33l0.11-0.17c0.04-0.07,0.09-0.13,0.13-0.2l0.2-0.3l0.23-0.33l0.23-0.33l0.23-0.32
			l0.24-0.32l0.03-0.04c0.02-0.02,0.03-0.04,0.05-0.06l0.16-0.21l0.24-0.32l0.25-0.31l0.25-0.31l0.25-0.31l0.25-0.31l0.26-0.31
			l0.26-0.3l0.26-0.3l0.26-0.3l0.27-0.3l0.27-0.29l0.27-0.29l0.27-0.29l0.28-0.29l0.28-0.28l0.28-0.28l0.28-0.28l0.29-0.28
			l0.29-0.27l0.29-0.27l0.29-0.27l0.3-0.27l0.3-0.26l0.3-0.26l0.3-0.26l0.31-0.26l0.31-0.25l0.31-0.25l0.31-0.25l-7.69-9.83
			C97.52,50.49,89.03,66.13,88.54,83.75z"/>
	</g>
	<path class="st23" d="M98.01,136.92l0.11,0.1l0.04,0.04l0.04,0.04l0.04,0.04l0.04,0.04l0.04,0.04l0.04,0.04l0.04,0.04l0.04,0.04
		l0.04,0.04l0.04,0.04l0.04,0.04l0.04,0.04l0.04,0.04l0.04,0.04l0.04,0.04l0.04,0.04l0.04,0.04l0.04,0.04l0.04,0.04l0.04,0.04
		l0.04,0.04l0.04,0.04l0.04,0.04l0.04,0.04l0.04,0.04l0.04,0.04L99.2,138l0.04,0.04l0.04,0.04l0.04,0.04l0.04,0.04l0.04,0.04
		l0.04,0.04l0.04,0.04l0.04,0.04l0.04,0.04l0.04,0.04l0.04,0.04l0.04,0.04l0.04,0.04l0.04,0.04l0.04,0.04l0.04,0.04l0.04,0.04
		l0.04,0.04l0.04,0.03l0.04,0.04l0.04,0.03l0.04,0.03l0.04,0.03l0.04,0.03l0.04,0.03l0.04,0.03l0.04,0.03l0.04,0.03l0.04,0.03
		l0.04,0.03l0.04,0.03l0.04,0.03l0.04,0.03l0.04,0.03l0.04,0.03l0.04,0.03l0.04,0.03l0.04,0.03l0.04,0.03l0.04,0.03l0.04,0.03
		l0.04,0.03l0.04,0.03l0.04,0.03l0.04,0.03l0.04,0.03l0.04,0.03l0.04,0.03l0.04,0.03l0.04,0.03l0.04,0.03l0.04,0.03l0.04,0.03
		l0.04,0.03l0.04,0.03l0.04,0.03l0.04,0.03l0.04,0.03l0.04,0.03l0.04,0.03l0.04,0.03l0.04,0.03l0.04,0.03l0.04,0.03l0.04,0.03
		l0.04,0.03l0.04,0.03l0.04,0.03l0.04,0.03l0.04,0.03l7.84-9.82c-1.14-0.91-2.25-1.85-3.32-2.84L98.01,136.92z"/>
	<path class="st24" d="M79.68,109.3l0.06,0.18l0.05,0.13l0.05,0.13l0.05,0.13l0.05,0.13l0.05,0.13l0.05,0.13l0.05,0.13l0.05,0.13
		l0.05,0.13l0.05,0.13l0.05,0.13l0.05,0.13l0.05,0.13l0.05,0.13l0.05,0.13l0.05,0.13l0.05,0.13l0.05,0.13l0.05,0.13l0.05,0.13
		l0.05,0.13l0.06,0.13l0.06,0.13l0.06,0.13l0.06,0.13l0.06,0.13l0.06,0.13l0.06,0.13l0.06,0.13l0.06,0.13l0.06,0.13l0.06,0.13
		l0.06,0.13l0.06,0.13l0.06,0.13l0.06,0.13l0.06,0.13l0.06,0.13l0.06,0.13l0.06,0.13l0.06,0.13l0.06,0.13l0.06,0.13l0.06,0.13
		l0.06,0.13l0.06,0.13l0.06,0.13l0.06,0.13l0.06,0.13l0.06,0.13l0.06,0.13l0.06,0.13l0.06,0.13l0.06,0.13l0.06,0.13l0.06,0.13
		l0.06,0.13l0.06,0.13l0.06,0.13l0.07,0.13l0.07,0.13l0.07,0.13l0.07,0.13l0.07,0.13l0.07,0.13l0.07,0.13l0.07,0.13l0.07,0.13
		l0.07,0.13l0.07,0.13l0.07,0.13l0.07,0.13l0.07,0.13l0.07,0.13l0.07,0.13l0.07,0.13l0.07,0.13l0.07,0.13l0.07,0.12l0.07,0.12
		l0.07,0.12l0.07,0.12l0.07,0.12l0.07,0.12l0.07,0.12l0.07,0.12l0.07,0.12l0.07,0.12l0.07,0.12l0.07,0.12l0.07,0.12l0.07,0.12
		l0.07,0.12l0.07,0.12l0.07,0.12l0.07,0.12l0.11,0.18l10.73-6.5c-2.02-3.29-3.73-6.79-5.07-10.47L79.68,109.3z"/>
	<path class="st25" d="M85.81,122.04l0.1,0.17l0.1,0.17l0.1,0.17l0.1,0.17l0.1,0.17l0.11,0.17l0.11,0.17l0.11,0.17l0.11,0.17
		l0.11,0.17l0.11,0.16l0.11,0.16l0.11,0.16l0.11,0.16l0.11,0.16l0.11,0.16l0.11,0.16l0.11,0.16l0.11,0.16l0.11,0.16l0.11,0.16
		l0.11,0.16l0.11,0.16l0.11,0.16l0.11,0.16l0.11,0.16l0.11,0.16l0.12,0.16l0.12,0.16l0.12,0.16l0.12,0.16l0.07,0.09h9.35l3.59-3.96
		c-2.11-2.42-4.03-5.01-5.71-7.75L85.81,122.04z"/>
	<path class="st25" d="M102.55,123.62l-3.7,4.08h-9.19l0.03,0.04l0.12,0.16l0.12,0.16l0.12,0.16l0.12,0.16l0.12,0.16l0.12,0.16
		l0.12,0.15l0.12,0.15l0.12,0.15l0.12,0.15l0.12,0.15l0.12,0.15l0.12,0.15l0.12,0.15l0.13,0.15l0.13,0.15l0.13,0.15l0.13,0.15
		l0.13,0.15l0.13,0.15l0.13,0.15l0.13,0.15l0.13,0.15l0.13,0.15l0.13,0.15l0.13,0.15l0.13,0.15l0.13,0.15l0.13,0.15l0.13,0.15
		l0.13,0.15l0.13,0.15l0.13,0.15l0.13,0.15l0.13,0.14l0.13,0.14l0.13,0.14l0.13,0.14l0.14,0.14l0.14,0.14l0.14,0.14l0.14,0.14
		l0.14,0.14l0.14,0.14l0.14,0.14l0.14,0.14l0.14,0.14l0.14,0.14l0.14,0.14l0.14,0.14l0.14,0.14l0.14,0.14l0.14,0.14l0.14,0.14
		l0.14,0.14l0.14,0.14l0.14,0.14l0.14,0.14l0.14,0.14l0.14,0.14l0.14,0.13l0.14,0.13l0.14,0.13l8.65-9.11
		C105.22,126.49,103.85,125.09,102.55,123.62z"/>
	<path class="st26" d="M77.21,100.89l0.02,0.09l0.02,0.09l0.02,0.09l0.02,0.09l0.02,0.09l0.02,0.09l0.02,0.09l0.02,0.09l0.02,0.09
		l0.02,0.09l0.02,0.09l0.02,0.09l0.02,0.09l0.02,0.09l0.02,0.09l0.02,0.09l0.02,0.09l0.02,0.09l0.02,0.09l0.02,0.09l0.02,0.09
		l0.02,0.09l0.02,0.09l0.02,0.09l0.02,0.09l0.02,0.09l0.02,0.09l0.02,0.09l0.02,0.09l0.02,0.09l0.02,0.09l0.02,0.09l0.02,0.09
		l0.02,0.09l0.02,0.09l0.02,0.09l0.02,0.09l0.02,0.09l0.02,0.09l0.02,0.09l0.02,0.09l0.02,0.09l0.02,0.09l0.02,0.09l0.02,0.09
		l0.02,0.09l0.02,0.09l0.03,0.09l0.03,0.09l0.03,0.09l0.03,0.09l0.03,0.09l0.03,0.09l0.03,0.09l0.03,0.09l0.03,0.09l0.03,0.09
		l0.03,0.09l0.03,0.09l0.03,0.09l0.03,0.09l0.03,0.09l0.03,0.09l0.03,0.09l0.03,0.09l0.03,0.09l0.03,0.09l0.03,0.09l0.03,0.09
		l0.03,0.09l0.03,0.09l0.03,0.09l0.03,0.09l0.03,0.09l0.03,0.09l0.03,0.09l0.03,0.08l0.03,0.08l0.03,0.08l0.03,0.08l0.03,0.08
		l0.03,0.08l0.03,0.08l0.03,0.08l0.03,0.08l0.03,0.08l0.03,0.08l0.03,0.08l0.03,0.08l0.03,0.08l0.03,0.08l0.03,0.08l0.03,0.08
		l0.03,0.08l0.03,0.08l0.03,0.08l0.03,0.08l0.03,0.08l11.8-4.2c-0.83-2.26-1.5-4.6-2.04-6.99L77.21,100.89z"/>
	<path class="st27" d="M88.45,92.41L76,93.89l0.02,0.12l0.01,0.07l0.01,0.07l0.01,0.07l0.01,0.07l0.01,0.07l0.01,0.07l0.01,0.07
		l0.01,0.07l0.01,0.07l0.01,0.07l0.01,0.07l0.01,0.07l0.01,0.07l0.01,0.07l0.01,0.07l0.01,0.07l0.01,0.07l0.01,0.07l0.01,0.07
		l0.01,0.07l0.01,0.07l0.01,0.07l0.01,0.07l0.01,0.07l0.01,0.07l0.01,0.07l0.01,0.07L76.29,96l0.01,0.07l0.01,0.07l0.01,0.07
		l0.01,0.07l0.01,0.07l0.01,0.07l0.01,0.07l0.01,0.07l0.01,0.07l0.01,0.07l0.01,0.07l0.01,0.07l0.01,0.07l0.01,0.07l0.01,0.07
		l0.01,0.07l0.01,0.07l0.01,0.07l0.01,0.07l0.01,0.07l0.01,0.07l0.01,0.07l0.01,0.07l0.01,0.07l0.01,0.07l0.01,0.07l0.01,0.07
		l0.01,0.07l0.01,0.07l0.01,0.07l0.01,0.07l0.01,0.07l0.01,0.07l0.01,0.07l0.01,0.07l0.01,0.07l0.01,0.07l0.01,0.07l0.01,0.07
		l0.01,0.07l0.01,0.07l0.01,0.07l0.01,0.07l0.01,0.07l0.01,0.07l0.01,0.07l0.01,0.07l0.01,0.07l0.01,0.07l0.01,0.07l0.01,0.07
		l0.01,0.07l0.01,0.07l0.01,0.07l0.01,0.07l0.01,0.07l0.01,0.07l0.02,0.07l0.02,0.07l0.02,0.07l0.02,0.07l0.02,0.07l0.02,0.07
		l0.02,0.07l0.02,0.07l0.02,0.07l0.02,0.07l0.02,0.07l0.02,0.1l12.23-2.74C89.02,96.27,88.69,94.35,88.45,92.41z"/>
	<path class="st28" d="M88,85.36c0-0.55,0.03-1.09,0.04-1.63L75.5,83.38l0,0.11l0,0.11l0,0.11l0,0.11l0,0.11l0,0.11l0,0.11l0,0.11
		l0,0.11l0,0.11l0,0.11l0,0.11l0,0.11l0,0.11l0,0.11l0,0.11l0,0.11l0,0.11v0.11l0,0.11l0,0.11l0,0.11l0,0.11l0,0.11l0,0.11l0,0.11
		l0,0.11l0,0.11l0,0.11l0,0.11l0,0.11l0,0.11l0,0.11l0,0.11l0,0.11l0,0.11l0,0.11l0,0.11l0,0.11l0,0.11l0,0.11l0,0.11l0,0.11l0,0.11
		l0,0.11l0,0.11l0,0.11l0,0.11l0,0.11l0.01,0.11l0.01,0.11l0.01,0.11l0.01,0.11l0.01,0.11l0.01,0.11l0.01,0.11l0.01,0.11l0.01,0.11
		l0.01,0.11l0.01,0.11l0.01,0.11l0.01,0.11l0.01,0.11l0.01,0.11l0.01,0.11l0.01,0.11l0.01,0.11l0.01,0.11l0.01,0.11l0.01,0.11
		L75.7,91l0.01,0.11l0.01,0.11l0.01,0.11l0.01,0.11l0.01,0.11l0.01,0.11l0.01,0.11l0.01,0.11l0.01,0.11l0.01,0.11l0.01,0.11
		l0.01,0.11l0.01,0.11l0.01,0.11l0.01,0.11l0.01,0.11l0.01,0.11l0.01,0.11l0.01,0.11l0.01,0.11l0.01,0.11l0.01,0.11l0.01,0.11
		l0.01,0.11l0.01,0.11l0.01,0.11L76,93.89l12.46-1.44C88.17,90.12,88,87.76,88,85.36z"/>
	<path class="st29" d="M117.81,120.27l-0.33-0.26l-0.33-0.27l-0.32-0.27l-0.32-0.27l-0.32-0.28l-0.32-0.28l-0.31-0.28l-0.31-0.29
		l-0.31-0.29l-0.3-0.29l-0.3-0.29l-0.3-0.3l-0.3-0.3l-0.29-0.3l-0.29-0.31l-0.29-0.31l-0.28-0.31l-0.28-0.31l-0.28-0.32l-0.28-0.32
		l-0.27-0.32l-0.27-0.32l-0.27-0.33l-0.26-0.33l-0.26-0.33l-0.26-0.33l-0.23-0.31c-0.01-0.02-0.03-0.04-0.04-0.06l-0.23-0.3
		l-0.25-0.34l-0.24-0.34l-0.24-0.35l-0.2-0.29c-0.05-0.07-0.09-0.14-0.14-0.21l-0.13-0.2l-0.23-0.35l-0.23-0.35l-0.22-0.36
		l-0.15-0.25c-0.08-0.13-0.16-0.26-0.24-0.39l-0.05-0.08l-0.21-0.36l-0.21-0.37l-0.21-0.37l-0.11-0.21c-0.11-0.2-0.22-0.4-0.32-0.6
		l-0.16-0.31l-0.19-0.37l-0.19-0.38l-0.08-0.17c-0.14-0.27-0.27-0.55-0.4-0.83l-0.07-0.15l-0.18-0.38l-0.17-0.39l-0.06-0.14
		c-0.14-0.33-0.28-0.65-0.42-0.98l-0.02-0.04l-0.16-0.39l-0.15-0.39l-0.06-0.16c-0.14-0.36-0.27-0.73-0.4-1.1l-0.11-0.33l-0.13-0.4
		l-0.08-0.25c-0.12-0.36-0.23-0.71-0.34-1.08l-0.08-0.28l-0.12-0.41l-0.11-0.41l-0.01-0.04c-0.08-0.3-0.16-0.6-0.23-0.9l-0.07-0.29
		l-0.1-0.41l-0.09-0.41l-0.05-0.25c-0.05-0.23-0.1-0.45-0.14-0.68l-0.06-0.3l-0.08-0.41l-0.07-0.42l-0.07-0.42l-0.02-0.12
		c-0.02-0.13-0.04-0.27-0.06-0.4l-0.05-0.31l-0.06-0.42l-0.05-0.42l-0.05-0.42l-0.05-0.42l0,0c0-0.04-0.01-0.09-0.01-0.13
		l-0.03-0.28l-0.04-0.42l-0.03-0.42l-0.03-0.42l-0.03-0.42l-0.02-0.42l-0.02-0.42l-0.01-0.42l-0.01-0.42l-0.01-0.42l0-0.42l0-0.42
		l0.01-0.42l0.01-0.42l-12.5-0.35c-0.02,0.54-0.04,1.07-0.04,1.61c0,18.16,8.51,34.35,21.74,44.85l7.9-9.67L117.81,120.27z"/>
	<polyline class="st30" points="88.27,83.74 101.04,84.1 101.03,84.52 	"/>
	<path class="st31" d="M187.57,125.08l9.12,8.65l0.01-0.01l0.01-0.01l0.01-0.01l0.01-0.01l0.01-0.01l0.01-0.01l0.01-0.01l0.01-0.01
		l0.01-0.01l0.01-0.01l0.01-0.01l0.01-0.01l0.01-0.01l0.01-0.01l0.01-0.01l0.01-0.01l0.01-0.01l0.01-0.01l0.01-0.01l0.01-0.01
		l0.01-0.01l0.01-0.01l0.01-0.01l0.01-0.01l0.01-0.01l0.01-0.01l0.01-0.01l0.01-0.01l0.01-0.01l0.01-0.01l0.01-0.01l0.01-0.01
		l0.01-0.01l0.01-0.01l0.01-0.01l0.01-0.01l0.01-0.01l0.01-0.01l0.01-0.01l0.01-0.01l0.01-0.01l0.01-0.01l0.01-0.01l0.01-0.01
		l0.01-0.01l0.01-0.01l0.01-0.01l0.01-0.01l0.01-0.01l0.01-0.01l0.01-0.01l0.01-0.01l0.01-0.01l0.01-0.01l0.01-0.01l0.01-0.01
		l0.01-0.01l0.01-0.01l0.01-0.01l0.01-0.01l0.01-0.01l0.01-0.01l0.01-0.01l0.01-0.01l0.01-0.01l0.01-0.01l0.01-0.01l0.01-0.01
		l0.01-0.01l0.01-0.01l0.01-0.01l0.01-0.01l0.01-0.01l0.01-0.01l0.01-0.01l0.01-0.01l0.01-0.01l0.01-0.01l0.01-0.01l0.01-0.01
		l0.01-0.01l0.01-0.01l0.01-0.01l0.01-0.01l0.01-0.01l0.01-0.01l0.01-0.01l0.01-0.01l0.01-0.01l0.01-0.01l0.01-0.01l0.01-0.01
		l0.01-0.01l0.01-0.01l0.01-0.01l0.01-0.01l0.01-0.01l0.01-0.01l-9.31-8.43C188.25,124.38,187.91,124.73,187.57,125.08z"/>
	<path class="st32" d="M184.48,128.13l8.43,9.3l0.03-0.02l0.03-0.02l0.03-0.02l0.03-0.02l0.03-0.02l0.03-0.02l0.03-0.02l0.03-0.02
		l0.03-0.02l0.03-0.02l0.03-0.02l0.03-0.02l0.03-0.02l0.03-0.02l0.03-0.02l0.03-0.02l0.03-0.02l0.03-0.02l0.03-0.02l0.03-0.02
		l0.03-0.02l0.03-0.02l0.03-0.02l0.03-0.02l0.03-0.02l0.03-0.02l0.03-0.02l0.03-0.02l0.03-0.02l0.03-0.02l0.03-0.02l0.03-0.02
		l0.03-0.02l0.03-0.02l0.03-0.02l0.03-0.02l0.03-0.02l0.03-0.02l0.03-0.02l0.03-0.02l0.03-0.02l0.03-0.02l0.03-0.02l0.03-0.02
		l0.03-0.02l0.03-0.02l0.03-0.02l0.03-0.02l0.03-0.02l0.03-0.02l0.03-0.02l0.03-0.02l0.03-0.02l0.03-0.02l0.03-0.02l0.03-0.02
		l0.03-0.02l0.03-0.02l0.03-0.02l0.03-0.02l0.03-0.02l0.03-0.02l0.03-0.02l0.03-0.02l0.03-0.02l0.03-0.02l0.03-0.02l0.03-0.02
		l0.03-0.02l0.03-0.03l0.03-0.02l0.03-0.03l0.03-0.03l0.03-0.03l0.03-0.03l0.03-0.03l0.03-0.03l0.03-0.03l0.03-0.03l0.03-0.03
		l0.03-0.03l0.03-0.03l0.03-0.03l0.03-0.03l0.03-0.03l0.03-0.03l0.03-0.03l0.03-0.03l0.03-0.03l0.03-0.03l0.03-0.03l0.03-0.03
		l0.03-0.03l0.03-0.03l0.03-0.03l0.03-0.03l0.03-0.03l0.04-0.04l-8.88-8.88C185.9,126.8,185.2,127.47,184.48,128.13z"/>
	<path class="st33" d="M165.43,152.8l0.03-0.01l0.03-0.01l0.03-0.01l0.03-0.01l0.03-0.01l0.03-0.01l0.03-0.01l0.03-0.01l0.03-0.01
		l0.03-0.01l0.03-0.01l0.03-0.01l0.03-0.01l0.03-0.01l0.03-0.01l0.03-0.01l0.03-0.01l0.03-0.01l0.03-0.01l0.03-0.01l0.03-0.01
		l0.03-0.01l0.03-0.01l0.03-0.01l0.03-0.01l0.03-0.01l0.03-0.01l0.03-0.01l0.03-0.01l0.03-0.01l0.03-0.01l0.03-0.01l0.03-0.01
		l0.03-0.01l0.03-0.01l0.03-0.01l0.03-0.01l0.03-0.01l0.03-0.01l0.03-0.01l0.03-0.01l0.03-0.01l0.03-0.01l0.03-0.01l0.03-0.01
		l0.03-0.01l0.03-0.01l0.03-0.01l0.03-0.01l0.03-0.01l0.03-0.01l0.03-0.01l0.03-0.01l0.03-0.01l0.03-0.01l0.03-0.01l0.03-0.01
		l0.03-0.01l0.03-0.01l0.03-0.01l0.03-0.01l0.03-0.01l0.03-0.01l0.03-0.01l0.03-0.01l0.03-0.01l0.03-0.01l0.03-0.01l0.03-0.01
		l0.03-0.01l0.03-0.01l0.03-0.01l0.03-0.01l0.03-0.01l0.03-0.01l0.03-0.01l0.03-0.01l0.03-0.01l0.03-0.01l0.03-0.01l0.03-0.01
		l0.03-0.01l0.03-0.01l0.03-0.01l0.03-0.01l0.03-0.01l0.03-0.01l0.03-0.01l0.03-0.01l0.03-0.01l0.03-0.01l0.03-0.01l0.03-0.01
		l0.03-0.01l0.03-0.01l0.03-0.01l0.03-0.01l0.05-0.02l-4.1-11.85c-0.91,0.32-1.84,0.61-2.77,0.89L165.43,152.8z"/>
	<path class="st34" d="M137.52,142.5l-1.89,12.39l0.3,0.04l0.2,0.03l0.2,0.03l0.2,0.03l0.2,0.03l0.2,0.03l0.2,0.02l0.2,0.02
		l0.2,0.02l0.2,0.02l0.2,0.02l0.2,0.02l0.2,0.02l0.2,0.02l0.2,0.02l0.2,0.02l0.2,0.02l0.2,0.02l0.2,0.02l0.2,0.02l0.2,0.02l0.2,0.02
		l0.2,0.02l0.2,0.02l0.2,0.01l0.2,0.01l0.2,0.01l0.2,0.01l0.2,0.01l0.2,0.01l0.2,0.01l0.2,0.01l0.2,0.01l0.2,0.01l0.2,0.01l0.2,0.01
		l0.2,0.01l0.2,0.01l0.2,0.01l0.2,0.01l0.2,0.01l0.2,0.01l0.2,0l0.2,0l0.2,0l0.2,0l0.2,0l0.2,0l0.2,0l0.2,0l0.2,0l0.2,0l0.2,0l0.2,0
		l0.2,0l0.2,0l0.2,0l0.2,0l0.2,0l0.2,0l0.2-0.01l0.2-0.01l0.2-0.01l0.2-0.01l0.2-0.01l0.2-0.01l0.2-0.01l0.2-0.01l0.2-0.01l0.2-0.01
		l0.2-0.01l0.2-0.01l0.2-0.01l0.2-0.01l0.2-0.01l0.2-0.01l0.2-0.01l0.2-0.01l0.2-0.02l0.2-0.02l0.2-0.02l0.2-0.02l0.2-0.02l0.2-0.02
		l0.2-0.02l0.2-0.02l0.2-0.02l0.2-0.02l0.2-0.02l0.2-0.02l0.2-0.02l0.2-0.02l0.2-0.02l0.2-0.02l0.2-0.02l0.2-0.02l0.2-0.03
		l0.29-0.04l-1.59-12.44c-2.54,0.34-5.13,0.54-7.76,0.54C142.95,143.09,140.21,142.88,137.52,142.5z"/>
	<path class="st35" d="M112.38,147.2l0.06,0.03l0.03,0.02l0.03,0.02l0.03,0.02l0.03,0.02l0.03,0.02l0.03,0.02l0.03,0.02l0.03,0.02
		l0.03,0.02l0.03,0.02l0.03,0.02l0.03,0.02l0.03,0.02l0.03,0.02l0.03,0.02l0.03,0.02l0.03,0.02l0.03,0.02l0.03,0.02l0.03,0.02
		l0.03,0.02l0.03,0.02l0.03,0.02l0.03,0.02l0.03,0.02l0.03,0.02l0.03,0.02l0.03,0.02l0.03,0.02l0.03,0.02l0.03,0.02l0.03,0.02
		l0.03,0.02l0.03,0.02l0.03,0.02l0.03,0.02l0.03,0.02l0.03,0.02l0.03,0.02l0.03,0.02l0.03,0.02l0.03,0.02l0.03,0.02l0.03,0.02
		l0.03,0.02l0.03,0.02l0.03,0.02l0.03,0.02l0.03,0.02l0.03,0.02l0.03,0.02l0.03,0.02l0.03,0.02l0.03,0.02l0.03,0.02l0.03,0.02
		l0.03,0.02l0.03,0.02l0.03,0.02l0.03,0.02l0.03,0.02l0.03,0.02l0.03,0.02l0.03,0.02l0.03,0.02l0.03,0.02l0.03,0.02l0.03,0.02
		l0.03,0.02l0.03,0.02l0.03,0.02l0.03,0.02l0.03,0.02l0.03,0.02l0.03,0.02l0.03,0.02l0.03,0.02l0.03,0.02l0.03,0.02l0.03,0.02
		l0.03,0.02l0.03,0.02l0.03,0.02l0.03,0.02l0.03,0.02l0.03,0.02l0.03,0.02l0.03,0.02l0.03,0.02l0.03,0.02l0.03,0.02l0.03,0.02
		l0.03,0.02l0.03,0.02l0.03,0.02l0.03,0.02l0.05,0.02l5.4-11.31c-0.88-0.42-1.74-0.86-2.6-1.32L112.38,147.2z"/>
	<path class="st36" d="M102.08,140.41l0.08,0.06l0.06,0.04l0.06,0.04l0.06,0.04l0.06,0.04l0.06,0.04l0.06,0.04l0.06,0.04l0.06,0.04
		l0.06,0.04l0.06,0.04l0.06,0.04l0.06,0.04l0.06,0.04l0.06,0.04l0.06,0.04l0.06,0.04l0.06,0.04l0.06,0.04l0.06,0.04l0.06,0.04
		l0.06,0.04l0.06,0.04l0.06,0.04l0.06,0.04l0.06,0.04l0.06,0.04l0.06,0.04l0.06,0.04l0.06,0.04l0.06,0.04l0.06,0.04l0.06,0.04
		l0.06,0.04l0.06,0.04l0.06,0.04l0.06,0.04l0.06,0.04l0.06,0.04l0.06,0.04l0.06,0.04l0.06,0.04l0.06,0.04l0.06,0.04l0.06,0.04
		l0.06,0.04l0.06,0.04l0.06,0.04l0.06,0.04l0.06,0.04l0.06,0.04l0.06,0.04l0.06,0.04l0.06,0.04l0.06,0.04l0.06,0.04l0.06,0.04
		l0.06,0.04l0.06,0.04l0.06,0.04l0.06,0.04l0.06,0.04l0.06,0.04l0.06,0.04l0.06,0.04l0.06,0.04l0.06,0.04l0.06,0.04l0.06,0.04
		l0.06,0.04l0.06,0.04l0.06,0.04l0.06,0.04l0.06,0.04l0.06,0.04l0.06,0.04l0.06,0.04l0.06,0.04l0.06,0.04l0.06,0.04l0.06,0.04
		l0.06,0.04l0.06,0.04l0.06,0.04l0.06,0.04l0.06,0.04l0.06,0.04l0.06,0.04l0.06,0.04l0.06,0.04l0.06,0.04l0.06,0.04l0.06,0.04
		l0.06,0.04l0.06,0.04l0.06,0.04l0.06,0.04l0.11,0.07l6.83-10.54c-1.65-1.06-3.25-2.2-4.78-3.41L102.08,140.41z"/>
	<path class="st37" d="M189.14,122.6l-9.25-8.39l-0.45,0.53l-0.46,0.52l-0.47,0.51l-0.48,0.51l-0.48,0.5l-0.49,0.49l-0.5,0.48
		l-0.51,0.48l-0.51,0.47l-0.52,0.46l-0.53,0.45l-0.29,0.24c-0.01,0.01-0.02,0.02-0.03,0.03l-0.21,0.18l-0.54,0.43l-0.55,0.43
		l-0.31,0.23c-0.04,0.03-0.08,0.06-0.12,0.09l-0.13,0.1l-0.56,0.41l-0.57,0.4l-0.3,0.2c-0.08,0.05-0.16,0.11-0.24,0.16l-0.03,0.02
		l-0.58,0.38l-0.59,0.37l-0.29,0.17c-0.15,0.09-0.3,0.18-0.45,0.28l-0.45,0.27l-0.6,0.35l-0.26,0.14c-0.23,0.13-0.46,0.25-0.69,0.37
		l-0.27,0.14l-0.62,0.32l-0.24,0.12c-0.29,0.15-0.59,0.29-0.89,0.43l-0.13,0.06l-0.63,0.29l-0.23,0.1
		c-0.34,0.15-0.68,0.29-1.02,0.43l-0.02,0.01l-0.65,0.26l-0.26,0.1c-0.4,0.15-0.81,0.3-1.21,0.44l-0.49,0.17l-0.37,0.12
		c-0.4,0.13-0.79,0.25-1.2,0.37l-0.43,0.13l-0.67,0.19l0,0c-0.31,0.08-0.62,0.16-0.93,0.24l-0.42,0.1l-0.68,0.15l-0.19,0.04
		c-0.25,0.05-0.5,0.11-0.76,0.16l-0.42,0.08l-0.68,0.12l-0.49,0.08c-0.16,0.02-0.31,0.05-0.47,0.07l-0.41,0.06l-0.69,0.09
		l-0.69,0.08l-0.13,0.01c-0.07,0.01-0.13,0.01-0.2,0.02l-0.36,0.04l-0.69,0.06l-0.69,0.05l-0.4,0.02c-0.01,0-0.02,0-0.03,0
		l-0.27,0.01l-0.69,0.03l-0.7,0.02l-0.7,0l-0.7-0.01l-0.69-0.02l-0.69-0.03l-0.69-0.04l-0.69-0.05l-0.69-0.06l-0.24-0.02
		c-0.07-0.01-0.14-0.01-0.21-0.02l-0.24-0.02l-0.69-0.08l-0.69-0.09l-0.28-0.04c-0.14-0.02-0.29-0.04-0.43-0.07l-0.66-0.11
		l-0.68-0.12l-0.29-0.06c-0.26-0.05-0.52-0.11-0.78-0.16l-0.29-0.06l-0.68-0.16l-0.29-0.07c-0.33-0.08-0.65-0.16-0.98-0.25
		l-0.08-0.02l-0.67-0.19l-0.29-0.09c-0.4-0.12-0.79-0.24-1.18-0.37l-0.51-0.17l-0.34-0.12c-0.42-0.15-0.84-0.3-1.26-0.46l-0.36-0.14
		l-0.46-0.19c-0.38-0.15-0.76-0.31-1.13-0.48l-0.33-0.14l-0.63-0.29l-0.04-0.02c-0.29-0.14-0.58-0.28-0.87-0.42l-0.34-0.17
		l-0.62-0.32l-0.17-0.09c-0.23-0.12-0.46-0.24-0.68-0.37l-0.37-0.2l-0.6-0.35l-0.32-0.19c-0.16-0.09-0.31-0.19-0.47-0.28l-0.39-0.24
		l-0.59-0.37l-0.49-0.32c-0.09-0.06-0.17-0.12-0.26-0.17l-0.41-0.28l-0.57-0.4l-0.56-0.41l-0.05-0.04
		c-0.03-0.02-0.06-0.05-0.09-0.07l-0.41-0.31l-0.55-0.43l-7.75,9.78c9.77,7.75,22.11,12.4,35.52,12.4
		C163.08,142.59,178.64,134.83,189.14,122.6z"/>
	<path class="st38" d="M139.68,15.36l-0.09,0.01l-0.09,0.01l-0.09,0.01l-0.09,0.01l-0.09,0.01l-0.09,0.01l-0.09,0.01l-0.09,0.01
		l-0.09,0.01l-0.09,0.01l-0.09,0.01l-0.09,0.01l-0.09,0.01l-0.09,0.01l-0.09,0.01l-0.09,0.01l-0.09,0.01l-0.09,0.01l-0.09,0.01
		l-0.09,0.01l-0.09,0.01l-0.09,0.01l-0.09,0.01l-0.09,0.01l-0.09,0.01l-0.09,0.01l-0.09,0.01l-0.09,0.01l-0.09,0.01l-0.09,0.01
		l-0.09,0.01l-0.09,0.01l-0.09,0.01l-0.09,0.01l-0.09,0.01l-0.09,0.01l-0.09,0.01l-0.09,0.01l-0.09,0.01l-0.09,0.01l-0.09,0.01
		l-0.09,0.01l-0.09,0.01l-0.09,0.01l-0.09,0.01l-0.09,0.01l-0.09,0.01l-0.09,0.01l-0.09,0.01l-0.09,0.01l-0.09,0.01l-0.09,0.01
		l-0.09,0.01l-0.09,0.01l-0.09,0.01l-0.09,0.01l-0.09,0.01L134.52,16l-0.09,0.01l-0.09,0.01l-0.09,0.01l-0.09,0.01l-0.09,0.01
		l-0.09,0.01l-0.09,0.02l-0.09,0.02l-0.09,0.02l-0.09,0.02l-0.09,0.02l-0.09,0.02l-0.09,0.02l-0.09,0.02l-0.09,0.02l-0.09,0.02
		l-0.09,0.02l-0.09,0.02l-0.09,0.02l-0.09,0.02l-0.09,0.02l-0.09,0.02l-0.09,0.02l-0.09,0.02l-0.09,0.02l-0.09,0.02l-0.09,0.02
		l-0.09,0.02l-0.09,0.02l-0.09,0.02l-0.09,0.02l-0.09,0.02l-0.09,0.02l-0.09,0.02l-0.09,0.02l-0.09,0.02l-0.09,0.02l-0.09,0.02
		l-0.09,0.02l-0.13,0.03l2.6,12.26c2.33-0.5,4.71-0.86,7.14-1.07L139.68,15.36z"/>
	<path class="st39" d="M153.62,15.54l-0.14-0.02l-0.14-0.02l-0.14-0.02l-0.14-0.02l-0.14-0.01l-0.14-0.01l-0.14-0.01l-0.14-0.01
		l-0.14-0.01l-0.14-0.01l-0.14-0.01l-0.14-0.01l-0.14-0.01l-0.14-0.01l-0.14-0.01l-0.14-0.01l-0.14-0.01l-0.14-0.01l-0.14-0.01
		l-0.14-0.01l-0.14-0.01l-0.14-0.01l-0.14-0.01l-0.14-0.01l-0.14-0.01l-0.14-0.01l-0.14-0.01l-0.14-0.01l-0.14-0.01l-0.14-0.01
		l-0.14-0.01l-0.14-0.01l-0.14-0.01l-0.14-0.01l-0.14-0.01l-0.14-0.01l-0.14-0.01l-0.14-0.01l-0.14,0l-0.14,0l-0.14,0l-0.14,0
		l-0.14,0l-0.14,0l-0.14,0l-0.14,0l-0.14,0l-0.14,0l-0.14,0l-0.14,0l-0.14,0l-0.14,0l-0.14,0l-0.14,0l-0.14,0l-0.14,0l-0.14,0
		l-0.14,0l-0.14,0l-0.14,0l-0.14,0l-0.14,0l-0.14,0l-0.14,0l-0.14,0l-0.14,0l-0.14,0l-0.14,0l-0.14,0l-0.14,0l-0.14,0l-0.14,0
		l-0.14,0.01l-0.14,0.01l-0.14,0.01l-0.14,0.01l-0.14,0.01l-0.14,0.01l-0.14,0.01l-0.14,0.01l-0.14,0.01l-0.14,0.01l-0.14,0.01
		l-0.14,0.01l-0.14,0.01l-0.14,0.01l-0.14,0.01l-0.14,0.01l-0.14,0.01l-0.14,0.01l-0.14,0.01l-0.14,0.01l-0.14,0.01l-0.14,0.01
		l-0.14,0.01l-0.14,0.01l-0.21,0.02l1.02,12.5c0.02,0,0.04,0,0.06,0c1.64-0.14,3.3-0.23,4.98-0.23c2.22,0,4.42,0.14,6.58,0.39
		l1.48-12.45L153.62,15.54z"/>
	<path class="st40" d="M156.5,28.65L159,16.36l-0.05-0.01l-0.05-0.01l-0.05-0.01l-0.05-0.01l-0.05-0.01l-0.05-0.01l-0.05-0.01
		l-0.05-0.01l-0.05-0.01l-0.05-0.01l-0.05-0.01l-0.05-0.01l-0.05-0.01l-0.05-0.01l-0.05-0.01l-0.05-0.01l-0.05-0.01l-0.05-0.01
		l-0.05-0.01l-0.05-0.01l-0.05-0.01l-0.05-0.01l-0.05-0.01l-0.05-0.01l-0.05-0.01l-0.05-0.01l-0.05-0.01l-0.05-0.01l-0.05-0.01
		l-0.05-0.01l-0.05-0.01l-0.05-0.01l-0.05-0.01l-0.05-0.01l-0.05-0.01l-0.05-0.01l-0.05-0.01l-0.05-0.01L156.93,16l-0.05-0.01
		l-0.05-0.01l-0.05-0.01l-0.05-0.01l-0.05-0.01l-0.05-0.01l-0.05-0.01l-0.05-0.01l-0.05-0.01l-0.05-0.01l-0.05-0.01l-0.05-0.01
		l-0.05-0.01l-0.05-0.01l-0.05-0.01l-0.05-0.01l-0.05-0.01l-0.05-0.01l-0.05-0.01l-0.05-0.01l-0.05-0.01l-0.05-0.01l-0.05-0.01
		l-0.05-0.01l-0.05-0.01l-0.05-0.01l-0.05-0.01l-0.05-0.01l-0.05-0.01l-0.05-0.01l-0.05-0.01l-0.05-0.01l-0.05-0.01l-0.05-0.01
		l-0.05-0.01l-0.05-0.01l-0.05-0.01l-0.05-0.01l-0.05-0.01l-0.05-0.01l-0.05-0.01l-0.05-0.01l-0.05-0.01l-0.05-0.01l-0.05-0.01
		l-0.05-0.01l-0.05-0.01l-0.05-0.01l-0.05-0.01l-0.05-0.01l-0.05-0.01l-0.05-0.01l-0.05-0.01l-0.05-0.01l-0.05-0.01l-0.05-0.01
		l-0.05-0.01l-0.05-0.01l-0.05-0.01l-1.46,12.45C153.74,28.17,155.13,28.39,156.5,28.65z"/>
	<path class="st40" d="M152.33,28.01l1.46-12.45l-1.48,12.45C152.32,28.01,152.33,28.01,152.33,28.01z"/>
	<path class="st41" d="M187.54,28.89l-0.26-0.19l-0.26-0.19l-0.26-0.19l-0.26-0.19l-0.26-0.19l-0.26-0.19l-0.26-0.18l-0.27-0.18
		l-0.27-0.18l-0.27-0.18l-0.27-0.18l-0.27-0.18l-0.27-0.18l-0.27-0.18l-0.27-0.17l-0.27-0.17l-0.27-0.17l-0.27-0.17l-0.27-0.17
		l-0.28-0.17l-0.28-0.17l-0.28-0.17l-0.28-0.16l-0.28-0.16l-0.28-0.16l-0.28-0.16l-0.28-0.16L179.96,24l-0.28-0.16l-0.28-0.16
		l-0.28-0.15l-0.28-0.15l-0.28-0.15l-0.29-0.15l-0.29-0.15l-0.29-0.15l-0.29-0.15l-0.29-0.14l-0.29-0.14l-0.29-0.14l-0.29-0.14
		l-0.29-0.14l-0.29-0.14l-0.29-0.14l-0.29-0.14l-0.29-0.13l-0.29-0.13l-0.29-0.13l-0.3-0.13l-0.3-0.13l-0.3-0.13l-0.3-0.13
		l-0.3-0.12l-0.3-0.12l-0.3-0.12l-0.3-0.12l-0.3-0.12l-0.3-0.12l-0.3-0.12l-0.3-0.11l-0.3-0.11l-0.3-0.11l-0.3-0.11l-0.3-0.11
		l-0.3-0.11l-0.3-0.11l-0.3-0.11l-0.31-0.1l-0.31-0.1l-0.31-0.1l-0.31-0.1l-0.31-0.1l-0.31-0.1l-0.31-0.1l-0.31-0.09L165.73,18
		l-0.31-0.09l-0.31-0.09l-0.31-0.09l-0.31-0.09l-0.31-0.09l-0.31-0.08l-0.31-0.08l-0.31-0.08l-0.31-0.08l-0.31-0.08l-0.31-0.08
		l-0.31-0.08l-0.31-0.07l-0.31-0.07l-0.31-0.07l-0.31-0.07l-0.32-0.07l-0.32-0.07l-0.32-0.07l-0.32-0.06L159,16.36l-2.49,12.29
		c0.04,0.01,0.09,0.01,0.13,0.02c8.73,1.67,16.77,5.31,23.63,10.44l7.53-10.03L187.54,28.89z"/>
	<path class="st42" d="M193.17,33.53l-0.05-0.05l-0.05-0.05l-0.05-0.05l-0.05-0.05l-0.05-0.05l-0.05-0.05l-0.05-0.05l-0.05-0.05
		l-0.05-0.05l-0.05-0.05L192.59,33l-0.05-0.05l-0.05-0.05l-0.05-0.05l-0.05-0.05l-0.05-0.05l-0.05-0.05l-0.05-0.05l-0.05-0.05
		l-0.05-0.05l-0.05-0.05L192,32.48l-0.05-0.05l-0.05-0.05l-0.05-0.05l-0.05-0.05l-0.05-0.05l-0.05-0.05l-0.05-0.05l-0.05-0.05
		l-0.05-0.05l-0.05-0.05l-0.05-0.05l-0.05-0.05l-0.05-0.05l-0.05-0.05l-0.05-0.05l-0.05-0.05l-0.05-0.05l-0.05-0.05l-0.05-0.05
		l-0.05-0.05l-0.05-0.05l-0.05-0.05l-0.05-0.05l-0.05-0.05l-0.06-0.05l-0.06-0.05l-0.06-0.05l-0.06-0.05l-0.06-0.05l-0.06-0.05
		l-0.06-0.05L190.25,31l-0.06-0.05l-0.06-0.05l-0.06-0.05l-0.06-0.05l-0.06-0.05l-0.06-0.05l-0.06-0.04l-0.06-0.04l-0.06-0.04
		l-0.06-0.04l-0.06-0.04l-0.06-0.04l-0.06-0.04l-0.06-0.04l-0.06-0.04l-0.06-0.04l-0.06-0.04l-0.06-0.04l-0.06-0.04l-0.06-0.04
		l-0.06-0.04l-0.06-0.04l-0.06-0.04l-0.06-0.04l-0.06-0.04l-0.06-0.04l-0.06-0.04l-0.06-0.04l-0.06-0.04l-0.06-0.04l-0.06-0.04
		l-0.06-0.04l-0.06-0.04l-0.06-0.04l-0.06-0.04l-0.06-0.04l-0.06-0.04l-0.06-0.04l-0.06-0.04L188,29.23l-0.06-0.04l-0.06-0.04
		l-0.09-0.06l-7.53,10.03c0.01,0.01,0.01,0.01,0.02,0.02c1.5,1.12,2.93,2.31,4.31,3.57l8.63-9.12L193.17,33.53z"/>
	<path class="st43" d="M215.13,74.34l-0.08-0.48l-0.08-0.48l-0.08-0.48l-0.09-0.48l-0.09-0.47l-0.09-0.47l-0.1-0.47l-0.1-0.47
		l-0.1-0.47l-0.11-0.47l-0.11-0.47l-0.11-0.47l-0.12-0.47l-0.12-0.47l-0.12-0.47l-0.13-0.47l-0.13-0.47l-0.13-0.47l-0.14-0.46
		l-0.14-0.46l-0.14-0.46L212.67,64l-0.15-0.46l-0.15-0.46l-0.15-0.46l-0.16-0.46l-0.16-0.46l-0.16-0.45l-0.17-0.45l-0.17-0.45
		l-0.17-0.45l-0.18-0.45L210.86,59l-0.18-0.45l-0.19-0.45l-0.19-0.45l-0.19-0.44l-0.2-0.44l-0.2-0.44l-0.2-0.44l-0.2-0.44
		l-0.21-0.44l-0.21-0.44l-0.21-0.43l-0.22-0.43l-0.22-0.43l-0.22-0.43l-0.23-0.43L207.57,52l-0.23-0.42l-0.23-0.42l-0.24-0.42
		l-0.24-0.42l-0.24-0.42l-0.25-0.42l-0.25-0.41l-0.25-0.41l-0.25-0.41l-0.26-0.41l-0.26-0.41l-0.26-0.41l-0.27-0.4l-0.27-0.4
		l-0.27-0.4l-0.27-0.4l-0.28-0.4l-0.28-0.39l-0.28-0.39l-0.28-0.39l-0.29-0.39l-0.29-0.39l-0.29-0.39l-0.3-0.38l-0.3-0.38l-0.3-0.38
		l-0.3-0.38l-0.31-0.37l-0.31-0.37l-0.31-0.37l-0.31-0.37l-0.32-0.37l-0.32-0.36l-0.32-0.36l-0.32-0.36l-0.33-0.36l-0.33-0.36
		l-0.33-0.35l-0.33-0.35l-0.34-0.35l-0.34-0.35l-0.34-0.34l-0.34-0.34l-0.34-0.34l-0.35-0.34l-0.35-0.33l-0.35-0.33l-0.53-0.49
		l-8.63,9.12c0.05,0.04,0.09,0.09,0.14,0.13c9.48,8.7,16.05,20.52,18.07,33.82l12.4-1.78L215.13,74.34z"/>
	<path class="st44" d="M216,85.25l0-0.11l0-0.11l0-0.11l0-0.11l0-0.11l0-0.11l0-0.11l0-0.11l0-0.11l0-0.11l0-0.11l0-0.11l0-0.11
		l0-0.11l0-0.11l0-0.11l0-0.11l0-0.11l0-0.11l0-0.11l0-0.11l0-0.11l0-0.11l0-0.11l0-0.11l0-0.11l0-0.11l0-0.11l0-0.11l-0.01-0.11
		l-0.01-0.11l-0.01-0.11l-0.01-0.11l-0.01-0.11l-0.01-0.11l-0.01-0.11l-0.01-0.11l-0.01-0.11l-0.01-0.11l-0.01-0.11l-0.01-0.11
		l-0.01-0.11l-0.01-0.11l-0.01-0.11l-0.01-0.11l-0.01-0.11l-0.01-0.11l-0.01-0.11l-0.01-0.11l-0.01-0.11l-0.01-0.11l-0.01-0.11
		l-0.01-0.11l-0.01-0.11l-0.01-0.11l-0.01-0.11l-0.01-0.11l-0.01-0.11l-0.01-0.11l-0.01-0.11l-0.01-0.11l-0.01-0.11l-0.01-0.11
		l-0.01-0.11l-0.01-0.11l-0.01-0.11l-0.01-0.11l-0.01-0.11l-0.01-0.11l-0.01-0.11l-0.01-0.11l-0.01-0.11l-0.01-0.11l-0.01-0.11
		l-0.01-0.11l-0.01-0.11L215.5,77l-0.01-0.11l-0.01-0.11l-0.01-0.11l-0.01-0.11l-0.01-0.11l-0.01-0.11l-0.01-0.11l-0.01-0.11
		l-0.01-0.11l-0.01-0.11l-0.01-0.11l-0.01-0.11l-0.01-0.11l-0.02-0.11l-0.02-0.11l-0.02-0.11l-0.02-0.11l-0.02-0.11l-0.02-0.11
		l-0.02-0.11l-12.4,1.78c0,0.01,0,0.03,0.01,0.04c0.43,2.83,0.65,5.72,0.65,8.66H216L216,85.25z"/>
	<path class="st45" d="M145.74,28.13c-0.93,0-1.85,0.03-2.76,0.07c-0.68,0.03-1.35,0.09-2.01,0.14c-0.21,0.02-0.42,0.03-0.63,0.05
		c-0.84,0.08-1.68,0.18-2.51,0.3c-0.02,0-0.04,0-0.06,0.01c-0.86,0.12-1.72,0.26-2.57,0.42c0,0,0,0,0,0l2.63,12.25
		c2.57-0.46,5.21-0.71,7.91-0.71c24.69,0,44.71,20.02,44.71,44.71c0,0.03,10.76,0.04,12.52,0.01c0,0,0-0.01,0-0.01
		C202.97,53.8,177.29,28.13,145.74,28.13z"/>
	<path class="st46" d="M188.57,124.03l9.32,8.41l0.01-0.01l0.01-0.01l0.01-0.01l0.01-0.01l0.01-0.01l0.01-0.01l0.01-0.01l0.01-0.01
		l0.01-0.01l0.01-0.01l0.01-0.01l0.01-0.01l0.01-0.01l0.01-0.01l0.01-0.01l0.01-0.01l0.01-0.01l0.01-0.01l0.01-0.01l0.01-0.01
		l0.01-0.01l0.01-0.01l0.01-0.01l0.01-0.01l0.01-0.01l0.01-0.01l0.01-0.01l0.01-0.01l0.01-0.01l0.01-0.01l0.01-0.01l0.01-0.01
		l0.01-0.01l0.01-0.01l0.01-0.01l0.01-0.01l0.01-0.01l0.01-0.01l0.01-0.01l0.01-0.01l0.01-0.01l0.01-0.01l0.01-0.01l0.01-0.01
		l0.01-0.01l0.01-0.01l0.01-0.01l0.01-0.01l0.01-0.01l0.01-0.01l0.01-0.01l0.01-0.01l0.01-0.01l0.01-0.01l0.01-0.01l0.01-0.01
		l0.01-0.01l0.01-0.01l0.01-0.01l0.01-0.01l0.01-0.01l0.01-0.01l0.01-0.01l0.01-0.01l0.01-0.01l0.01-0.01l0.01-0.01l0.01-0.01
		l0.01-0.01l0.01-0.01l0.01-0.01l0.01-0.01l0.01-0.01l0.01-0.01l0.01-0.01l0.01-0.01l0.01-0.01l0.01-0.01l0.01-0.01l0.01-0.01
		l0.01-0.01l0.01-0.01l0.01-0.01l0.01-0.01l0.01-0.01l0.01-0.01l0.01-0.01l0.01-0.01l0.01-0.01l0.01-0.01l0.01-0.01l0.01-0.01
		l0.01-0.01l0.01-0.01l0.01-0.01l0.01-0.01l0.01-0.01l0.02-0.02l-9.53-8.19C189.21,123.29,188.89,123.67,188.57,124.03z"/>
	<path class="st47" d="M195.46,135l0.01-0.01l0.01-0.01l0.01-0.01l0.01-0.01l0.01-0.01l0.01-0.01l0.01-0.01l0.01-0.01l0.01-0.01
		l0.01-0.01l0.01-0.01l0.01-0.01l0.01-0.01l0.01-0.01l0.01-0.01l0.01-0.01l0.01-0.01l0.01-0.01l0.01-0.01l0.01-0.01l0.01-0.01
		l0.01-0.01l0.01-0.01l0.01-0.01l0.01-0.01l0.01-0.01l0.01-0.01l0.01-0.01l0.01-0.01l0.01-0.01l0.01-0.01l0.01-0.01l0.01-0.01
		l0.01-0.01l0.01-0.01l0.01-0.01l0.01-0.01l0.01-0.01l0.01-0.01l0.01-0.01l0.01-0.01l0.01-0.01l0.01-0.01l0.01-0.01l0.01-0.01
		l0.01-0.01l0.01-0.01l0.01-0.01l0.01-0.01l0.01-0.01l0.01-0.01l0.01-0.01l0.01-0.01l0.01-0.01l0.01-0.01l0.01-0.01l0.01-0.01
		l0.01-0.01l0.01-0.01l0.01-0.01l0.01-0.01l0.01-0.01l0.01-0.01l0.01-0.01l0.01-0.01l0.01-0.01l0.01-0.01l0.01-0.01l0.01-0.01
		l0.01-0.01l0.01-0.01l0.01-0.01l0.01-0.01l0.01-0.01l0.01-0.01l0.01-0.01l0.01-0.01l0.01-0.01l0.01-0.01l0.01-0.01l0.01-0.01
		l0.01-0.01l0.01-0.01l0.01-0.01l0.01-0.01l0.01-0.01l0.01-0.01l0.01-0.01l0.01-0.01l0.01-0.01l0.01-0.01l0.01-0.01l0.01-0.01
		l0.01-0.01l0.01-0.01l0.01-0.01l0.01-0.01l0.02-0.02l-9.11-8.66c-0.33,0.35-0.66,0.71-1,1.05L195.46,135z"/>
	<path class="st48" d="M168.79,151.73l0.27-0.09l0.27-0.1l0.27-0.1l0.27-0.1l0.27-0.1l0.27-0.1l0.27-0.1l0.27-0.1l0.27-0.1l0.27-0.1
		l0.27-0.11l0.27-0.11l0.27-0.11l0.27-0.11l0.26-0.11l0.26-0.11l0.26-0.11l0.26-0.11l0.26-0.11l0.26-0.12l0.26-0.12l0.26-0.12
		l0.26-0.12l0.26-0.12l0.26-0.12l0.26-0.12l0.26-0.12l0.26-0.12l0.26-0.12l0.26-0.13l0.26-0.13l0.26-0.13l0.26-0.13l0.26-0.13
		l0.25-0.13l0.25-0.13l0.25-0.13l0.25-0.13l0.25-0.14l0.25-0.14l0.25-0.14l0.25-0.14l0.25-0.14l0.25-0.14l0.25-0.14l0.25-0.14
		l0.25-0.14l0.25-0.14l0.25-0.15l0.25-0.15l0.25-0.15l0.25-0.15l0.24-0.15l0.24-0.15l0.24-0.15l0.24-0.15l0.24-0.15l0.24-0.15
		l0.24-0.16l0.24-0.16l0.24-0.16l0.24-0.16l0.24-0.16l0.24-0.16l0.24-0.16l0.24-0.16l0.24-0.16l0.23-0.16l0.23-0.17l0.23-0.17
		l0.23-0.17l0.23-0.17l0.23-0.17l0.23-0.17l0.23-0.17l0.23-0.17l0.23-0.17l0.23-0.17l0.23-0.17l0.23-0.18l0.23-0.18l0.23-0.18
		l0.22-0.18l0.22-0.18l0.22-0.18l0.22-0.18l0.22-0.18l0.22-0.18l0.22-0.18l0.22-0.18l0.22-0.19l0.22-0.19l0.22-0.19l0.22-0.19
		l0.22-0.19l0.21-0.19l0.21-0.19l0.32-0.29l-8.34-9.38c-5.7,5.19-12.46,9.25-19.89,11.84L168.79,151.73z"/>
	<path class="st49" d="M155.08,154.99l0.11-0.01l0.11-0.01l0.11-0.01l0.11-0.01l0.11-0.02l0.11-0.02l0.11-0.02l0.11-0.02l0.11-0.02
		l0.11-0.02l0.11-0.02l0.11-0.02l0.11-0.02l0.11-0.02l0.11-0.02l0.11-0.02l0.11-0.02l0.11-0.02l0.11-0.02l0.11-0.02l0.11-0.02
		l0.11-0.02l0.11-0.02l0.11-0.02l0.11-0.02l0.11-0.02l0.11-0.02l0.11-0.02l0.11-0.02l0.11-0.02l0.11-0.02l0.11-0.02l0.11-0.02
		l0.11-0.02l0.11-0.02l0.11-0.02l0.11-0.02l0.11-0.02l0.11-0.02l0.11-0.02l0.11-0.02l0.11-0.02l0.11-0.02l0.11-0.02l0.11-0.02
		l0.11-0.02l0.11-0.02l0.11-0.02l0.11-0.02l0.11-0.02l0.11-0.02l0.11-0.02l0.11-0.02l0.1-0.02l0.1-0.02l0.1-0.02l0.1-0.02l0.1-0.02
		l0.1-0.02l0.1-0.02l0.1-0.02l0.1-0.02l0.1-0.02l0.1-0.02l0.1-0.02l0.1-0.02l0.1-0.03l0.1-0.03l0.1-0.03l0.1-0.03l0.1-0.03l0.1-0.03
		l0.1-0.03l0.1-0.03l0.1-0.03l0.1-0.03l0.1-0.03l0.1-0.03l0.1-0.03l0.1-0.03l0.1-0.03l0.1-0.03l0.1-0.03l0.1-0.03l0.1-0.03l0.1-0.03
		l0.1-0.03l0.1-0.03l0.1-0.03l0.1-0.03l0.1-0.03l0.1-0.03l0.1-0.03l0.1-0.03l0.1-0.03l0.1-0.03l0.1-0.03l0.15-0.05l-3.47-12.05
		c-2.77,0.81-5.62,1.42-8.54,1.81L155.08,154.99z"/>
	<path class="st50" d="M115.55,148.81l0.19,0.09l0.19,0.09l0.19,0.09l0.2,0.09l0.2,0.09l0.2,0.09l0.2,0.09l0.2,0.09l0.2,0.09
		l0.2,0.09l0.2,0.09l0.2,0.09l0.2,0.08l0.2,0.08l0.2,0.08l0.2,0.08l0.2,0.08l0.2,0.08l0.2,0.08l0.2,0.08l0.2,0.08l0.2,0.08l0.2,0.08
		l0.2,0.08l0.2,0.08l0.2,0.08l0.2,0.08l0.2,0.08l0.2,0.08l0.2,0.07l0.2,0.07l0.2,0.07l0.2,0.07l0.2,0.07l0.2,0.07l0.2,0.07l0.2,0.07
		l0.2,0.07l0.2,0.07l0.2,0.07l0.2,0.07l0.2,0.07l0.2,0.07l0.2,0.07l0.2,0.07l0.21,0.06l0.21,0.06l0.21,0.06l0.21,0.06l0.21,0.06
		l0.21,0.06l0.21,0.06l0.21,0.06l0.21,0.06l0.21,0.06l0.21,0.06l0.21,0.06l0.21,0.06l0.21,0.06l0.21,0.06l0.21,0.05l0.21,0.05
		l0.21,0.05l0.21,0.05l0.21,0.05l0.21,0.05l0.21,0.05l0.21,0.05l0.21,0.05l0.21,0.05l0.21,0.05l0.21,0.05l0.21,0.05l0.21,0.05
		l0.21,0.05l0.21,0.05l0.21,0.04l0.21,0.04l0.21,0.04l0.21,0.04l0.21,0.04l0.21,0.04l0.21,0.04l0.21,0.04l0.21,0.04l0.21,0.04
		l0.21,0.04l0.21,0.04l0.21,0.04l0.21,0.04l0.21,0.04l0.21,0.04l0.21,0.03l0.21,0.03l0.21,0.03l0.21,0.03l0.21,0.03l0.21,0.03
		l1.97-12.38c-5.89-0.83-11.49-2.55-16.67-5.02L115.55,148.81z"/>
	<path class="st51" d="M107.85,144.53l0.05,0.03l0.05,0.03l0.05,0.03l0.05,0.03l0.05,0.03l0.05,0.03l0.05,0.03l0.05,0.03l0.05,0.03
		l0.05,0.03l0.05,0.03l0.05,0.03l0.05,0.03l0.05,0.03l0.05,0.03l0.05,0.03l0.05,0.03l0.05,0.03l0.05,0.03l0.05,0.03l0.05,0.03
		l0.05,0.03l0.05,0.03l0.05,0.03l0.05,0.03l0.05,0.03l0.05,0.03l0.05,0.03l0.05,0.03l0.05,0.03l0.05,0.03l0.05,0.03l0.05,0.03
		l0.05,0.03l0.05,0.03l0.05,0.03l0.05,0.03l0.05,0.03l0.05,0.03l0.05,0.03l0.05,0.03l0.05,0.03l0.05,0.03l0.05,0.03l0.05,0.03
		l0.05,0.03l0.05,0.03l0.05,0.03l0.05,0.03l0.05,0.03l0.05,0.03l0.05,0.03l0.05,0.03l0.05,0.03l0.05,0.03l0.05,0.03l0.05,0.03
		l0.05,0.03l0.05,0.03l0.05,0.03l0.05,0.03l0.05,0.03l0.05,0.03l0.05,0.03l0.05,0.03l0.05,0.03l0.05,0.03l0.05,0.03l0.05,0.03
		l0.05,0.03l0.05,0.03l0.05,0.03l0.05,0.03l0.05,0.03l0.05,0.03l0.05,0.03l0.05,0.03l0.05,0.03l0.05,0.03l0.05,0.03l0.05,0.03
		l0.05,0.03l0.05,0.03l0.05,0.03l0.05,0.03l0.05,0.03l0.05,0.03l0.05,0.03l0.05,0.03l0.05,0.03l0.05,0.03l0.05,0.03l0.05,0.03
		l0.05,0.03l0.05,0.03l0.05,0.03l0.05,0.03l0.05,0.03l5.99-11.02c-1.28-0.69-2.53-1.45-3.75-2.23L107.85,144.53z"/>
</g>
</svg>
